<svg xmlns="http://www.w3.org/2000/svg" viewBox="0 0 1600 330" width="1600" height="330" role="img" aria-labelledby="t d"><title id="t">Instruments and correspondence</title><desc id="d">Instruments: Python · TypeScript · JavaScript · Java · SQL; FastAPI · Next.js · React · Tailwind · Git · Linux. In study: DSA, system design, Docker, AWS, DevSecOps. Correspondence: victorisaacchinta@gmail.com, in/victor-isaac-chintha, x.com/rotcivcassi.</desc><rect width="1600" height="330" fill="#100F0D"/><defs><path id="n110" d="M497 -3Q497 35 482 66Q467 97 439 119Q411 141 372.5 152.5Q334 164 287 164Q239 164 191 150Q143 136 104 101L162 32Q187 55 218.5 67.5Q250 80 288 80Q339 80 368.5 58.5Q398 37 398 0Q398 -33 373 -52.5Q348 -72 300 -85L230 -105Q146 -128 110 -168.5Q74 -209 74 -258Q74 -304 102.5 -340Q131 -376 185 -398V-408Q145 -433 126.5 -467.5Q108 -502 108 -543Q108 -581 123 -612Q138 -643 166 -664.5Q194 -686 232.5 -698Q271 -710 318 -710Q366 -710 414 -696Q462 -682 501 -647L443 -578Q418 -601 386.5 -613.5Q355 -626 317 -626Q266 -626 236.5 -604.5Q207 -583 207 -546Q207 -513 232 -493.5Q257 -474 305 -461L375 -441Q459 -418 495 -377.5Q531 -337 531 -288Q531 -242 503 -206Q475 -170 420 -148V-138Q460 -113 478.5 -78.5Q497 -44 497 -3ZM433 -258Q433 -294 409.5 -318Q386 -342 329 -358L260 -376Q251 -378 243 -381Q235 -384 227 -387Q201 -367 186.5 -342.5Q172 -318 172 -288Q172 -252 195.5 -228Q219 -204 276 -188L345 -170Q354 -168 362 -165Q370 -162 378 -159Q404 -179 418.5 -203.5Q433 -228 433 -258Z"/><path id="n38" d="M80 0V-85H244V-613H80V-698H520V-613H356V-85H520V0Z"/><path id="n43" d="M179 -537H170V0H72V-698H216L421 -161H430V-698H528V0H384Z"/><path id="n48" d="M294 12Q203 12 141 -20Q79 -52 39 -105L111 -174Q151 -126 196 -103.5Q241 -81 298 -81Q364 -81 399.5 -111Q435 -141 435 -197Q435 -242 409 -266.5Q383 -291 320 -302L244 -314Q194 -322 160 -340.5Q126 -359 105 -384.5Q84 -410 74.5 -441.5Q65 -473 65 -508Q65 -607 129 -658.5Q193 -710 305 -710Q388 -710 446.5 -683.5Q505 -657 541 -609L471 -539Q442 -574 402.5 -595.5Q363 -617 305 -617Q243 -617 210.5 -590.5Q178 -564 178 -513Q178 -470 203.5 -445.5Q229 -421 294 -410L368 -397Q462 -380 505 -328.5Q548 -277 548 -203Q548 -155 531.5 -115Q515 -75 482.5 -47Q450 -19 402.5 -3.5Q355 12 294 12Z"/><path id="n49" d="M356 -604V0H244V-604H25V-698H575V-604Z"/><path id="n47" d="M195 0H84V-698H345Q445 -698 497.5 -642Q550 -586 550 -488Q550 -408 511 -356Q472 -304 399 -292L560 0H436L288 -282H195ZM329 -372Q433 -372 433 -467V-510Q433 -605 329 -605H195V-372Z"/><path id="n50" d="M181 -698V-269Q181 -226 183.5 -191Q186 -156 198 -131.5Q210 -107 234 -94Q258 -81 300 -81Q342 -81 366 -94Q390 -107 402 -131.5Q414 -156 416.5 -191Q419 -226 419 -269V-698H531V-289Q531 -214 522.5 -157.5Q514 -101 489 -63.5Q464 -26 418.5 -7Q373 12 300 12Q227 12 181.5 -7Q136 -26 111 -63.5Q86 -101 77.5 -157.5Q69 -214 69 -289V-698Z"/><path id="n42" d="M445 -334 448 -544H440L300 -185L160 -544H152L155 -334V0H56V-698H193L300 -421H307L415 -698H544V0H445Z"/><path id="n34" d="M86 0V-698H523V-604H198V-401H511V-307H198V-94H523V0Z"/><path id="s73" d="M34 0Q19 0 19 -11Q19 -20 32 -23L55 -27Q76 -31 82.5 -38Q89 -45 89 -66V-654Q89 -675 82.5 -682Q76 -689 55 -693L32 -697Q19 -700 19 -709Q19 -720 34 -720H243Q302 -720 347 -694.5Q392 -669 417 -624Q442 -579 442 -520Q442 -463 417 -419Q392 -375 348 -350.5Q304 -326 246 -326H174Q160 -326 160 -312V-70Q160 -49 168 -41.5Q176 -34 204 -29L241 -23Q252 -21 252 -12Q252 0 237 0ZM160 -406Q160 -351 227 -351Q292 -351 329.5 -397Q367 -443 367 -523Q367 -605 329 -650Q291 -695 221 -695Q160 -695 160 -655Z"/><path id="s222" d="M83 205Q56 205 40 186.5Q24 168 24 144Q24 125 35 112Q46 99 65 99Q81 99 88 106Q95 113 98 122Q101 131 104 138Q107 145 116 145Q127 145 136 129.5Q145 114 161 64Q171 34 173.5 12Q176 -10 172.5 -35Q169 -60 157 -96L48 -443Q41 -467 34.5 -474Q28 -481 14 -484L-1 -487Q-14 -490 -14 -500Q-14 -510 0 -510H165Q179 -510 179 -500Q179 -489 166 -487L150 -485Q126 -482 119.5 -473.5Q113 -465 120 -443L208 -150Q211 -140 217.5 -140Q224 -140 227 -150L312 -425Q320 -452 316.5 -465.5Q313 -479 288 -483L267 -487Q254 -490 254 -500Q254 -510 268 -510H395Q409 -510 409 -499Q409 -489 397 -485L388 -482Q373 -477 363 -464Q353 -451 342 -419L193 46Q171 116 153.5 150Q136 184 120 194.5Q104 205 83 205Z"/><path id="s202" d="M147 9Q112 9 89.5 -15.5Q67 -40 67 -96V-470Q67 -482 55 -482H26Q10 -482 10 -494Q10 -502 19 -508Q52 -531 72 -557.5Q92 -584 107 -630Q114 -651 124 -651Q135 -651 135 -635V-524Q135 -510 149 -510H214Q230 -510 230 -496Q230 -482 214 -482H149Q135 -482 135 -468V-95Q135 -73 142 -60.5Q149 -48 168 -48Q189 -48 202.5 -69Q216 -90 220 -137Q222 -151 233 -151Q245 -151 245 -136Q242 -59 213.5 -25Q185 9 147 9Z"/><path id="s151" d="M27 0Q15 0 15 -11Q15 -21 26 -23L40 -25Q61 -28 67.5 -37Q74 -46 74 -67V-640Q74 -658 68.5 -664.5Q63 -671 49 -673L28 -676Q17 -678 17 -688Q17 -698 28 -700Q56 -706 75 -714Q94 -722 107 -730Q123 -740 131 -740Q142 -740 142 -724V-459Q142 -450 148 -448.5Q154 -447 163 -455Q201 -490 230 -503Q259 -516 291 -516Q338 -516 365 -484.5Q392 -453 392 -392V-67Q392 -46 398.5 -37.5Q405 -29 426 -26L448 -23Q459 -21 459 -11Q459 0 447 0H279Q265 0 265 -11Q265 -21 276 -23L290 -25Q311 -28 317.5 -37Q324 -46 324 -67V-381Q324 -430 306 -450Q288 -470 255 -470Q223 -470 197.5 -451.5Q172 -433 157 -402.5Q142 -372 142 -335V-67Q142 -46 148.5 -37Q155 -28 176 -26L203 -23Q214 -21 214 -11Q214 0 202 0Z"/><path id="s179" d="M203 9Q152 9 111.5 -25.5Q71 -60 47 -120Q23 -180 23 -254Q23 -328 47 -387Q71 -446 112 -481Q153 -516 203 -516Q254 -516 294.5 -481Q335 -446 359 -387Q383 -328 383 -254Q383 -180 359.5 -120Q336 -60 295 -25.5Q254 9 203 9ZM203 -16Q307 -16 307 -254Q307 -491 203 -491Q99 -491 99 -254Q99 -16 203 -16Z"/><path id="s173" d="M30 0Q15 0 15 -11Q15 -20 28 -23L40 -25Q61 -29 67.5 -37.5Q74 -46 74 -67V-403Q74 -421 68.5 -427.5Q63 -434 49 -436L28 -439Q15 -440 15 -450Q15 -458 31 -461Q62 -466 78.5 -477Q95 -488 113 -504Q122 -513 128 -513Q137 -513 137 -501V-456Q137 -447 143.5 -444.5Q150 -442 158 -450Q198 -488 228.5 -502Q259 -516 293 -516Q338 -516 365 -484.5Q392 -453 392 -392V-67Q392 -46 398.5 -37.5Q405 -29 426 -26L448 -23Q459 -21 459 -11Q459 0 447 0H279Q265 0 265 -11Q265 -21 276 -23L290 -25Q311 -28 317.5 -37Q324 -46 324 -67V-381Q324 -430 306 -450Q288 -470 255 -470Q223 -470 197.5 -451.5Q172 -433 157 -402.5Q142 -372 142 -335V-67Q142 -46 148.5 -37Q155 -28 176 -26L203 -23Q214 -21 214 -12Q214 0 199 0Z"/><path id="s293" d="M53 -316Q31 -316 15.5 -330.5Q0 -345 0 -369Q0 -392 15.5 -406.5Q31 -421 53 -421Q73 -421 89 -406.5Q105 -392 105 -369Q105 -345 89 -330.5Q73 -316 53 -316Z"/><path id="s86" d="M118 0Q103 0 103 -11Q103 -22 116 -23L161 -30Q181 -33 188 -40.5Q195 -48 195 -69V-669Q195 -683 189 -689Q183 -695 164 -695Q127 -695 91 -663Q55 -631 44 -560L39 -527Q37 -514 25 -514Q10 -514 12 -531L21 -712Q23 -735 39 -735Q46 -735 52 -731.5Q58 -728 72.5 -724Q87 -720 119 -720H342Q374 -720 388.5 -724Q403 -728 409.5 -731.5Q416 -735 422 -735Q438 -735 440 -712L449 -531Q451 -514 436 -514Q424 -514 422 -527L417 -560Q407 -631 371 -663Q335 -695 297 -695Q278 -695 272 -689Q266 -683 266 -669V-69Q266 -48 273.5 -40.5Q281 -33 300 -30L345 -23Q358 -22 358 -11Q358 0 343 0Z"/><path id="s189" d="M27 205Q12 205 12 194Q12 183 25 182L39 180Q60 177 66.5 168Q73 159 73 138V-403Q73 -421 67.5 -427.5Q62 -434 48 -436L27 -439Q14 -440 14 -450Q14 -458 30 -461Q61 -466 77.5 -477Q94 -488 112 -504Q121 -513 127 -513Q136 -513 136 -501V-470Q136 -463 142 -460.5Q148 -458 156 -466L167 -477Q187 -497 208 -506.5Q229 -516 256 -516Q302 -516 337.5 -485.5Q373 -455 393.5 -401Q414 -347 414 -274Q414 -191 388 -127Q362 -63 316.5 -27Q271 9 212 9Q182 9 159 -2Q141 -10 141 9V138Q141 159 147.5 166.5Q154 174 175 177L212 182Q223 184 223 193Q223 205 208 205ZM215 -16Q271 -16 305.5 -82Q340 -148 340 -260Q340 -363 310 -417Q280 -471 225 -471Q191 -471 166 -443Q141 -415 141 -365V-113Q141 -68 161.5 -42Q182 -16 215 -16Z"/><path id="s137" d="M192 9Q144 9 106 -23Q68 -55 45.5 -113.5Q23 -172 23 -249Q23 -328 46 -388Q69 -448 109 -482Q149 -516 198 -516Q257 -516 293.5 -467.5Q330 -419 330 -310Q330 -277 305 -277H115Q95 -277 95 -254Q95 -148 126 -95Q157 -42 205 -42Q243 -42 267 -69Q291 -96 306 -160Q309 -171 319 -171Q331 -171 328 -151Q312 -62 277 -26.5Q242 9 192 9ZM112 -302H213Q261 -302 261 -352Q261 -417 245 -454Q229 -491 197 -491Q158 -491 131.5 -446Q105 -401 97 -318Q95 -302 112 -302Z"/><path id="s80" d="M184 9Q164 9 139.5 5Q115 1 93.5 -5Q72 -11 60 -18Q53 -22 49.5 -26.5Q46 -31 46 -42L41 -199Q41 -219 54 -219Q65 -219 69 -201L78 -163Q112 -20 205 -20Q255 -20 284.5 -53.5Q314 -87 314 -148Q314 -207 283.5 -258Q253 -309 186 -359Q112 -412 78 -461.5Q44 -511 44 -567Q44 -641 95.5 -685.5Q147 -730 227 -730Q257 -730 285 -723Q313 -716 331 -703Q337 -699 340.5 -694Q344 -689 344 -681L347 -530Q347 -513 334 -513Q325 -513 321 -527L314 -552Q292 -629 268.5 -664.5Q245 -700 201 -700Q158 -700 132.5 -672Q107 -644 107 -593Q107 -550 135 -511Q163 -472 233 -416Q308 -355 342.5 -298.5Q377 -242 377 -178Q377 -122 352 -80Q327 -38 283.5 -14.5Q240 9 184 9Z"/><path id="s128" d="M180 9Q136 9 100.5 -20.5Q65 -50 44 -105Q23 -160 23 -236Q23 -321 48.5 -384Q74 -447 118 -481.5Q162 -516 216 -516Q262 -516 288 -498Q298 -491 298 -476L300 -354Q300 -339 288 -339Q277 -339 274 -352Q260 -407 247 -437Q234 -467 220 -478.5Q206 -490 189 -490Q169 -490 147.5 -467Q126 -444 111.5 -392.5Q97 -341 97 -257Q97 -150 124.5 -96Q152 -42 196 -42Q231 -42 254.5 -71Q278 -100 295 -176Q298 -187 307 -187Q319 -187 316 -167Q305 -97 285.5 -58.5Q266 -20 239.5 -5.5Q213 9 180 9Z"/><path id="s192" d="M154 -446Q195 -516 253 -516Q286 -516 302 -496.5Q318 -477 318 -453Q318 -434 308.5 -422Q299 -410 279 -410Q263 -410 255.5 -417.5Q248 -425 243.5 -435Q239 -445 233 -452.5Q227 -460 213 -460Q195 -460 179 -438.5Q163 -417 152.5 -381Q142 -345 142 -299V-67Q142 -46 148.5 -37Q155 -28 176 -26L203 -23Q214 -21 214 -12Q214 0 199 0H30Q15 0 15 -11Q15 -20 28 -23L40 -25Q61 -29 67.5 -37.5Q74 -46 74 -67V-403Q74 -421 68.5 -427.5Q63 -434 49 -436L28 -439Q15 -440 15 -450Q15 -458 31 -461Q62 -466 78.5 -477Q95 -488 113 -504Q122 -513 128 -513Q137 -513 137 -501V-447Q137 -440 143 -438.5Q149 -437 154 -446Z"/><path id="s153" d="M114 -605Q93 -605 78.5 -620Q64 -635 64 -658Q64 -681 78.5 -695.5Q93 -710 114 -710Q135 -710 149 -695.5Q163 -681 163 -658Q163 -635 149 -620Q135 -605 114 -605ZM30 0Q15 0 15 -11Q15 -20 28 -23L40 -25Q65 -29 72 -37.5Q79 -46 79 -67V-403Q79 -421 73.5 -427.5Q68 -434 54 -436L33 -439Q20 -440 20 -450Q20 -458 36 -461Q67 -466 86 -477Q105 -488 123 -504Q132 -513 138 -513Q147 -513 147 -501V-67Q147 -46 153 -37Q159 -28 176 -26L201 -23Q212 -21 212 -12Q212 0 197 0Z"/><path id="s48" d="M14 215Q-17 215 -36.5 198.5Q-56 182 -56 155Q-56 135 -44.5 122Q-33 109 -15 109Q2 109 9 119Q16 129 20.5 142Q25 155 31 165Q37 175 50 175Q69 175 79 153Q89 131 89 91V-654Q89 -675 82.5 -682Q76 -689 55 -693L32 -697Q19 -700 19 -709Q19 -720 34 -720H215Q230 -720 230 -709Q230 -700 217 -697L194 -693Q173 -689 166.5 -682Q160 -675 160 -654V-44Q160 76 121 145.5Q82 215 14 215Z"/><path id="s115" d="M120 9Q78 9 51 -17.5Q24 -44 24 -88Q24 -131 51 -169.5Q78 -208 125 -239Q172 -270 232 -289Q245 -293 245 -306V-397Q245 -445 230 -465.5Q215 -486 189 -486Q164 -486 143.5 -463.5Q123 -441 114 -388Q109 -356 92.5 -341.5Q76 -327 59 -327Q31 -327 31 -355Q31 -384 47.5 -412.5Q64 -441 91 -464.5Q118 -488 150 -502Q182 -516 214 -516Q313 -516 313 -401V-95Q313 -53 334 -53Q347 -53 358 -70.5Q369 -88 369 -130Q369 -146 382 -146Q394 -146 394 -129Q394 -56 368.5 -23.5Q343 9 311 9Q287 9 273 -10.5Q259 -30 254 -57Q253 -67 245.5 -67.5Q238 -68 231 -58Q207 -25 182 -8Q157 9 120 9ZM147 -37Q173 -37 195 -55.5Q217 -74 231 -105Q245 -136 245 -175V-248Q245 -267 224 -259Q163 -237 129.5 -198.5Q96 -160 96 -106Q96 -37 147 -37Z"/><path id="s215" d="M194 9Q185 9 181 -2L48 -443Q41 -467 34.5 -474Q28 -481 14 -484L-1 -487Q-14 -490 -14 -500Q-14 -510 0 -510H165Q179 -510 179 -500Q179 -489 166 -487L150 -485Q126 -482 120 -473.5Q114 -465 120 -443L203 -154Q206 -143 213 -143Q220 -143 223 -154L304 -425Q312 -452 308.5 -465.5Q305 -479 280 -483L259 -487Q246 -490 246 -500Q246 -510 260 -510H387Q401 -510 401 -499Q401 -489 389 -485L380 -482Q365 -477 354.5 -464Q344 -451 334 -419L207 -2Q203 9 194 9Z"/><path id="s75" d="M434 215Q404 215 370.5 202.5Q337 190 311 159Q285 128 275 71Q270 39 259 25Q248 11 222 1Q170 -16 128.5 -67.5Q87 -119 63.5 -195Q40 -271 40 -361Q40 -439 57.5 -506Q75 -573 106.5 -623.5Q138 -674 180 -702Q222 -730 270 -730Q318 -730 359.5 -702Q401 -674 433 -623.5Q465 -573 482.5 -506Q500 -439 500 -361Q500 -269 475.5 -191.5Q451 -114 408.5 -63Q366 -12 312 3Q306 4 306 8.5Q306 13 311 17Q324 26 333 39.5Q342 53 348 74Q366 132 394.5 158Q423 184 457 184Q487 184 518 165Q526 160 533 162Q540 164 540 172Q540 179 532 186Q516 198 492.5 206.5Q469 215 434 215ZM270 -18Q341 -18 381 -103Q421 -188 421 -361Q421 -534 381 -618.5Q341 -703 270 -703Q200 -703 159.5 -618.5Q119 -534 119 -361Q119 -188 159.5 -103Q200 -18 270 -18Z"/><path id="s51" d="M34 0Q19 0 19 -11Q19 -20 32 -23L55 -27Q76 -31 82.5 -38Q89 -45 89 -66V-654Q89 -675 82.5 -682Q76 -689 55 -693L32 -697Q19 -700 19 -709Q19 -720 34 -720H217Q232 -720 232 -708Q232 -699 221 -697L194 -693Q173 -690 166.5 -682Q160 -674 160 -653V-93Q160 -57 180.5 -41Q201 -25 232 -25Q255 -25 279.5 -34.5Q304 -44 324 -70.5Q344 -97 354 -148L367 -215Q370 -228 382 -228Q396 -228 394 -211L382 -23Q380 0 357 0Z"/><path id="s32" d="M34 0Q19 0 19 -11Q19 -20 32 -23L55 -27Q76 -31 82.5 -38Q89 -45 89 -66V-654Q89 -675 82.5 -682Q76 -689 55 -693L32 -697Q19 -700 19 -709Q19 -720 34 -720H356Q379 -720 381 -697L389 -531Q391 -514 376 -514Q364 -514 362 -527L357 -560Q349 -612 329 -641Q309 -670 284 -682.5Q259 -695 236 -695Q192 -695 176 -681Q160 -667 160 -638V-402Q160 -388 174 -388H209Q253 -388 263 -435L274 -485Q277 -498 289 -498Q301 -498 301 -481V-256Q301 -239 289 -239Q277 -239 274 -252L263 -301Q256 -336 243.5 -347Q231 -358 208 -358H174Q160 -358 160 -344V-71Q160 -50 166.5 -41.5Q173 -33 194 -30L241 -23Q252 -21 252 -12Q252 0 237 0Z"/><path id="s196" d="M131 9Q108 9 82 3.5Q56 -2 40 -10Q31 -15 31 -27L28 -139Q28 -156 41 -156Q52 -156 56 -140Q73 -69 97.5 -43Q122 -17 157 -17Q186 -17 205 -39.5Q224 -62 224 -102Q224 -142 202 -173Q180 -204 128 -241Q76 -276 52 -311.5Q28 -347 28 -389Q28 -446 68 -481Q108 -516 174 -516Q194 -516 213 -511.5Q232 -507 247 -497Q256 -491 256 -481L258 -371Q258 -356 246 -356Q239 -356 236 -360.5Q233 -365 231 -372Q211 -437 191 -462.5Q171 -488 142 -488Q116 -488 99 -470Q82 -452 82 -425Q82 -390 103 -364Q124 -338 179 -300Q229 -264 254.5 -222.5Q280 -181 280 -132Q280 -68 239 -29.5Q198 9 131 9Z"/><path id="s1" d="M-3 0Q-18 0 -18 -10Q-18 -20 -4 -23L11 -26Q31 -30 41 -45.5Q51 -61 58 -89L213 -714Q215 -724 219.5 -727Q224 -730 228 -730Q233 -730 237.5 -727Q242 -724 244 -714L402 -80Q409 -52 418 -41Q427 -30 446 -26L461 -23Q475 -20 475 -10Q475 0 460 0H289Q275 0 275 -11Q275 -22 292 -23L311 -25Q328 -27 332.5 -36Q337 -45 332 -67L294 -222Q288 -248 261 -248H156Q130 -248 123 -222L89 -88Q74 -31 119 -25L134 -23Q151 -20 151 -11Q151 0 137 0ZM153 -278H263Q279 -278 276 -295L212 -563H207L140 -295Q137 -278 153 -278Z"/><path id="s39" d="M34 0Q19 0 19 -11Q19 -20 32 -23L55 -27Q76 -31 82.5 -38Q89 -45 89 -66V-654Q89 -675 82.5 -682Q76 -689 55 -693L32 -697Q19 -700 19 -709Q19 -720 34 -720H215Q230 -720 230 -709Q230 -700 217 -697L194 -693Q173 -689 166.5 -682Q160 -675 160 -654V-66Q160 -45 166.5 -38Q173 -31 194 -27L217 -23Q230 -20 230 -11Q230 0 215 0Z"/><path id="s57" d="M429 9Q413 9 402 -15L131 -603Q128 -610 123.5 -609Q119 -608 119 -600V-86Q119 -58 128.5 -43.5Q138 -29 163 -25L176 -23Q189 -22 189 -11Q189 0 174 0H31Q16 0 16 -11Q16 -22 29 -23L42 -25Q68 -29 78 -43.5Q88 -58 88 -86V-654Q88 -675 81.5 -682Q75 -689 52 -693L29 -697Q16 -700 16 -709Q16 -720 31 -720H138Q163 -720 173 -698L409 -179Q412 -173 416.5 -174Q421 -175 421 -181V-634Q421 -666 410 -678.5Q399 -691 382 -694L364 -697Q351 -700 351 -709Q351 -720 366 -720H509Q524 -720 524 -709Q524 -698 511 -697L498 -695Q472 -691 462 -678.5Q452 -666 452 -634V-23Q452 -5 445.5 2Q439 9 429 9Z"/><path id="s221" d="M227 0Q213 0 213 -10Q213 -20 226 -23L241 -26Q271 -33 257 -59L186 -199Q182 -206 176.5 -206.5Q171 -207 167 -199L102 -77Q80 -35 109 -29L135 -23Q148 -20 148 -10Q148 0 134 0H6Q-8 0 -8 -11Q-8 -22 4 -25L16 -28Q35 -33 48 -43.5Q61 -54 81 -91L155 -227Q163 -242 157 -256L62 -443Q51 -466 43.5 -474Q36 -482 26 -484L11 -487Q-2 -490 -2 -500Q-2 -510 12 -510H160Q174 -510 174 -500Q174 -490 161 -487L146 -484Q116 -477 130 -451L198 -319Q202 -312 207 -312Q212 -312 216 -319L276 -433Q298 -475 269 -481L243 -487Q230 -490 230 -500Q230 -510 244 -510H372Q386 -510 386 -499Q386 -488 374 -485L362 -482Q343 -478 330 -467.5Q317 -457 297 -419L228 -291Q219 -276 227 -260L325 -67Q337 -43 344 -35.5Q351 -28 361 -26L376 -23Q389 -20 389 -10Q389 0 375 0Z"/><path id="s284" d="M107 9Q85 9 69.5 -5.5Q54 -20 54 -44Q54 -67 69.5 -81.5Q85 -96 107 -96Q127 -96 143 -81.5Q159 -67 159 -44Q159 -20 143 -5.5Q127 9 107 9Z"/><path id="s163" d="M114 -605Q92 -605 78 -620.5Q64 -636 64 -658Q64 -681 78 -695.5Q92 -710 114 -710Q136 -710 149.5 -695.5Q163 -681 163 -658Q163 -635 149 -620Q135 -605 114 -605ZM4 215Q-25 215 -44 200Q-63 185 -63 161Q-63 144 -52.5 131.5Q-42 119 -24 119Q-8 119 -1 127.5Q6 136 10 147Q14 158 20.5 166.5Q27 175 40 175Q59 175 69 153Q79 131 79 91V-403Q79 -421 73.5 -427.5Q68 -434 54 -436L33 -439Q20 -440 20 -450Q20 -458 36 -461Q67 -466 86 -477Q105 -488 123 -504Q132 -513 138 -513Q147 -513 147 -501V-44Q147 76 108 145.5Q69 215 4 215Z"/><path id="s76" d="M450 9Q363 9 339 -105L316 -216Q305 -270 291.5 -298Q278 -326 254.5 -336Q231 -346 190 -346Q176 -346 168 -338.5Q160 -331 160 -320V-70Q160 -49 168 -41.5Q176 -34 204 -29L241 -23Q252 -21 252 -12Q252 0 237 0H34Q19 0 19 -11Q19 -20 32 -23L55 -27Q76 -31 82.5 -38Q89 -45 89 -66V-654Q89 -675 82.5 -682Q76 -689 55 -693L32 -697Q19 -700 19 -709Q19 -720 34 -720H237Q296 -720 342 -697Q388 -674 414 -633.5Q440 -593 440 -540Q440 -477 402 -426.5Q364 -376 306 -355Q299 -353 298.5 -348.5Q298 -344 305 -341Q337 -326 355.5 -299Q374 -272 384 -227L406 -125Q417 -73 432 -51Q447 -29 470 -29Q478 -29 484.5 -31.5Q491 -34 501 -41Q509 -46 516 -43.5Q523 -41 523 -33Q523 -16 501 -3.5Q479 9 450 9ZM227 -371Q295 -371 330 -416.5Q365 -462 365 -538Q365 -612 324.5 -653.5Q284 -695 213 -695Q160 -695 160 -655V-426Q160 -371 227 -371Z"/><path id="s167" d="M20 0Q8 0 8 -11Q8 -21 19 -23L33 -25Q54 -28 64 -37Q74 -46 74 -67V-640Q74 -658 68.5 -665Q63 -672 49 -673L26 -676Q15 -678 15 -688Q15 -698 26 -700Q54 -706 74 -714Q94 -722 107 -730Q123 -740 131 -740Q142 -740 142 -724V-67Q142 -46 148.5 -37.5Q155 -29 176 -26L199 -23Q210 -21 210 -11Q210 0 198 0Z"/><path id="s216" d="M187 9Q174 9 169 -11L48 -443Q41 -467 34.5 -474Q28 -481 14 -484L-1 -487Q-14 -490 -14 -500Q-14 -510 0 -510H162Q176 -510 176 -500Q176 -489 163 -487L147 -485Q123 -482 117 -473.5Q111 -465 117 -443L196 -152Q199 -142 205.5 -142Q212 -142 215 -152L283 -411Q285 -419 285.5 -427Q286 -435 283 -444Q276 -468 269.5 -474.5Q263 -481 249 -484L234 -487Q221 -490 221 -500Q221 -510 235 -510H397Q411 -510 411 -500Q411 -489 398 -487L382 -485Q358 -482 353 -473.5Q348 -465 352 -443L416 -154Q418 -144 424.5 -144Q431 -144 434 -154L510 -425Q518 -452 514.5 -465.5Q511 -479 486 -483L465 -487Q452 -490 452 -500Q452 -510 466 -510H591Q605 -510 605 -499Q605 -489 593 -485L584 -482Q569 -477 558 -464Q547 -451 538 -419L424 -11Q419 9 405 9Q393 9 388 -11L310 -331Q307 -342 300.5 -342.5Q294 -343 291 -331L205 -11Q200 9 187 9Z"/><path id="s133" d="M181 9Q137 9 102.5 -21.5Q68 -52 49 -106.5Q30 -161 30 -233Q30 -317 56 -380.5Q82 -444 128 -480Q174 -516 232 -516Q246 -516 260 -513.5Q274 -511 287 -505Q303 -497 303 -512V-640Q303 -658 297.5 -665Q292 -672 278 -673L252 -676Q241 -678 241 -688Q241 -698 252 -700Q284 -706 303.5 -714Q323 -722 336 -730Q352 -740 360 -740Q371 -740 371 -724V-95Q371 -53 392 -53Q405 -53 416 -70.5Q427 -88 427 -130Q427 -146 440 -146Q452 -146 452 -129Q452 -56 427 -23.5Q402 9 370 9Q341 9 326 -10.5Q311 -30 306 -57Q305 -65 299 -65.5Q293 -66 288 -58Q260 -19 237 -5Q214 9 181 9ZM203 -37Q229 -37 251.5 -54.5Q274 -72 288.5 -102Q303 -132 303 -169V-394Q303 -439 282.5 -465Q262 -491 229 -491Q173 -491 138.5 -425.5Q104 -360 104 -247Q104 -144 130.5 -90.5Q157 -37 203 -37Z"/><path id="s33" d="M291 9Q210 9 154 -37Q98 -83 69 -166.5Q40 -250 40 -364Q40 -474 74 -556.5Q108 -639 167.5 -684.5Q227 -730 304 -730Q343 -730 375 -722.5Q407 -715 431 -703Q444 -696 444 -682L447 -530Q447 -513 435 -513Q424 -513 421 -526L413 -556Q391 -639 363 -670Q335 -701 286 -701Q213 -701 165.5 -614.5Q118 -528 118 -364Q118 -195 166.5 -106.5Q215 -18 291 -18Q332 -18 353 -36Q374 -54 374 -103V-322Q374 -343 367.5 -351Q361 -359 340 -361L301 -365Q288 -366 288 -377Q288 -388 303 -388H486Q501 -388 501 -376Q501 -367 490 -365L475 -363Q453 -360 449 -351Q445 -342 445 -321V-50Q445 -39 439 -32.5Q433 -26 418 -18Q394 -6 363 1.5Q332 9 291 9Z"/><path id="s205" d="M171 9Q146 9 123 -2Q100 -13 85 -37Q70 -61 70 -101V-449Q70 -467 64.5 -474Q59 -481 45 -482L28 -484Q11 -486 11 -497Q11 -510 30 -510H123Q138 -510 138 -495V-122Q138 -76 155.5 -56.5Q173 -37 204 -37Q235 -37 259 -54.5Q283 -72 297.5 -101.5Q312 -131 312 -166V-449Q312 -467 306.5 -474Q301 -481 287 -482L270 -484Q253 -486 253 -497Q253 -510 272 -510H365Q380 -510 380 -495V-107Q380 -89 385.5 -82.5Q391 -76 405 -74L426 -71Q439 -70 439 -61Q439 -52 423 -49Q392 -45 373.5 -33Q355 -21 341 -4Q332 5 326 5Q317 5 317 -7V-53Q317 -61 311.5 -62.5Q306 -64 300 -58Q263 -21 234.5 -6Q206 9 171 9Z"/><path id="i39" d="M-22 0Q-36 0 -36 -10Q-36 -21 -16 -24L4 -27Q26 -30 34.5 -37.5Q43 -45 47 -66L183 -654Q188 -675 183 -682Q178 -689 158 -693L138 -697Q125 -700 125 -708Q125 -720 143 -720H321Q335 -720 335 -710Q335 -699 315 -696L295 -693Q273 -690 265 -682.5Q257 -675 252 -654L116 -66Q112 -45 116.5 -38Q121 -31 141 -27L161 -23Q174 -20 174 -12Q174 0 156 0Z"/><path id="i173" d="M53 -13 148 -412Q153 -434 149.5 -446.5Q146 -459 131 -459Q113 -459 91.5 -432.5Q70 -406 43 -332Q39 -319 29 -319Q14 -319 21 -337Q43 -406 67.5 -445Q92 -484 117 -500Q142 -516 163 -516Q196 -516 210 -491.5Q224 -467 211 -411L186 -303Q185 -296 189 -295Q193 -294 196 -300Q235 -381 271 -428.5Q307 -476 339 -496Q371 -516 397 -516Q434 -516 451 -486Q468 -456 451 -394L375 -104Q368 -76 374 -62Q380 -48 396 -48Q416 -48 435.5 -74.5Q455 -101 476 -175Q479 -186 489 -186Q497 -186 498.5 -180Q500 -174 498 -166Q479 -98 457 -59.5Q435 -21 412.5 -6Q390 9 367 9Q331 9 313 -21Q295 -51 311 -114L388 -404Q399 -443 391.5 -458Q384 -473 370 -473Q348 -473 320 -445.5Q292 -418 263 -370.5Q234 -323 206 -263Q178 -203 155.5 -138Q133 -73 119 -11Q116 0 105 0H64Q50 0 53 -13Z"/><path id="i196" d="M116 9Q83 9 46.5 -1Q10 -11 -9 -26Q-16 -32 -15 -44L7 -175Q9 -188 19 -188Q30 -188 30 -174L32 -126Q34 -69 59.5 -42.5Q85 -16 122 -16Q154 -16 177 -36.5Q200 -57 200 -97Q200 -120 193 -139.5Q186 -159 171 -181.5Q156 -204 130 -236Q96 -280 79.5 -311.5Q63 -343 63 -377Q63 -440 102.5 -478Q142 -516 203 -516Q230 -516 255.5 -508Q281 -500 298 -484Q307 -477 304 -466L276 -332Q273 -319 264 -319Q255 -319 253 -333L250 -381Q246 -441 234.5 -467Q223 -493 187 -493Q155 -493 135 -471Q115 -449 115 -418Q115 -385 133 -357.5Q151 -330 182 -288Q223 -234 237.5 -202Q252 -170 252 -137Q252 -95 233.5 -62Q215 -29 184 -10Q153 9 116 9Z"/><path id="i202" d="M102 9Q68 9 49 -18Q30 -45 43 -105L126 -467Q129 -482 114 -482H76Q62 -482 62 -495Q62 -502 67 -506Q72 -510 79 -510H115Q138 -510 142 -531L166 -638Q169 -649 180 -649H221Q235 -649 232 -636L207 -525Q204 -510 219 -510H276Q293 -510 293 -497Q293 -482 272 -482H218Q196 -482 191 -461L107 -95Q102 -73 108.5 -60.5Q115 -48 131 -48Q154 -48 173.5 -74Q193 -100 215 -173Q219 -186 228 -186Q235 -186 237 -180Q239 -174 234 -158Q215 -90 192.5 -54Q170 -18 147 -4.5Q124 9 102 9Z"/><path id="i205" d="M115 9Q78 9 64.5 -24.5Q51 -58 66 -113L145 -403Q153 -432 149 -448Q145 -464 131 -464Q108 -464 84.5 -429Q61 -394 44 -332Q41 -321 31 -321Q17 -321 22 -341Q45 -425 82.5 -470.5Q120 -516 165 -516Q201 -516 213 -483Q225 -450 209 -393L129 -103Q110 -34 142 -34Q162 -34 188 -61Q214 -88 242.5 -135Q271 -182 299 -242Q327 -302 350 -368Q373 -434 388 -499Q391 -510 402 -510H442Q456 -510 453 -497L359 -95Q348 -48 376 -48Q418 -48 464 -175Q468 -188 478 -188Q484 -188 486.5 -183Q489 -178 486 -170Q459 -85 422 -38Q385 9 344 9Q272 9 296 -96L322 -207Q324 -214 319.5 -215Q315 -216 312 -210Q254 -90 205 -40.5Q156 9 115 9Z"/><path id="i133" d="M90 9Q53 9 33 -22Q13 -53 13 -113Q13 -170 29 -227.5Q45 -285 73 -337Q101 -389 136.5 -429Q172 -469 211.5 -492.5Q251 -516 290 -516Q317 -516 337 -502Q351 -493 354 -508L386 -640Q391 -658 386.5 -665Q382 -672 368 -673L338 -676Q323 -677 325 -689Q327 -698 339 -700Q375 -706 403 -714.5Q431 -723 448 -737Q456 -743 463 -743Q475 -743 472 -728L330 -113Q315 -48 350 -48Q373 -48 391.5 -79Q410 -110 429 -175Q432 -186 442 -186Q449 -186 451 -180Q453 -174 451 -166Q432 -72 398.5 -31.5Q365 9 320 9Q281 9 264.5 -24Q248 -57 261 -114L272 -160Q274 -167 269.5 -168Q265 -169 262 -163Q214 -69 171 -30Q128 9 90 9ZM114 -42Q138 -42 167 -71Q196 -100 224.5 -146Q253 -192 277 -245Q301 -298 315.5 -347Q330 -396 330 -430Q330 -491 287 -491Q261 -491 232 -467.5Q203 -444 176.5 -404Q150 -364 128.5 -313.5Q107 -263 94 -208.5Q81 -154 81 -102Q81 -67 90.5 -54.5Q100 -42 114 -42Z"/><path id="i222" d="M-27 215Q-65 215 -86 195.5Q-107 176 -107 148Q-107 127 -96 116.5Q-85 106 -72 106Q-53 106 -45 116Q-37 126 -33 139.5Q-29 153 -20.5 163Q-12 173 7 173Q44 173 80 143.5Q116 114 139 62.5Q162 11 159 -53L144 -412Q143 -438 135 -448.5Q127 -459 115 -459Q93 -459 73 -432.5Q53 -406 40 -332Q37 -319 27 -319Q13 -319 16 -337Q28 -406 49.5 -445Q71 -484 95.5 -500Q120 -516 141 -516Q172 -516 190 -494.5Q208 -473 210 -421L224 -37Q224 -30 228.5 -28.5Q233 -27 237 -33Q272 -82 300.5 -134.5Q329 -187 346 -238Q363 -289 363 -332Q363 -374 354 -398.5Q345 -423 335.5 -440Q326 -457 326 -477Q326 -516 360 -516Q408 -516 408 -410Q408 -352 388 -283.5Q368 -215 333.5 -144.5Q299 -74 254.5 -10Q210 54 161.5 105Q113 156 64.5 185.5Q16 215 -27 215Z"/><path id="i286" d="M62 9Q41 9 28 -4.5Q15 -18 15 -38Q15 -64 33 -80Q51 -96 71 -96Q91 -96 104.5 -82.5Q118 -69 118 -49Q118 -23 100 -7Q82 9 62 9ZM149 -371Q128 -371 115 -384.5Q102 -398 102 -418Q102 -444 120 -460Q138 -476 158 -476Q178 -476 191.5 -462.5Q205 -449 205 -429Q205 -403 187 -387Q169 -371 149 -371Z"/><path id="i19" d="M-22 0Q-36 0 -36 -10Q-36 -21 -16 -24L4 -27Q26 -30 34.5 -37.5Q43 -45 47 -66L183 -654Q188 -675 183 -682Q178 -689 158 -693L138 -697Q125 -700 125 -708Q125 -720 143 -720H344Q430 -720 480.5 -656.5Q531 -593 531 -468Q531 -376 502 -291.5Q473 -207 424 -141.5Q375 -76 312.5 -38Q250 0 182 0ZM187 -26Q244 -26 294 -68Q344 -110 382 -182.5Q420 -255 441.5 -346Q463 -437 463 -534Q463 -614 430 -654Q397 -694 338 -694Q263 -694 246 -621L126 -99Q117 -59 133.5 -42.5Q150 -26 187 -26Z"/><path id="i80" d="M173 9Q145 9 113.5 3Q82 -3 54.5 -13.5Q27 -24 11 -38Q6 -43 4.5 -48Q3 -53 5 -63L33 -220Q36 -238 49 -238Q61 -238 61 -218L62 -179Q64 -95 91 -58Q118 -21 179 -21Q235 -21 272 -61.5Q309 -102 309 -170Q309 -214 285 -262Q261 -310 218 -358Q167 -415 142.5 -462Q118 -509 118 -561Q118 -602 138 -640.5Q158 -679 198.5 -704.5Q239 -730 302 -730Q389 -730 435 -691Q449 -680 445 -658L417 -512Q414 -497 403 -497Q392 -497 390 -514L389 -535Q385 -616 366.5 -658.5Q348 -701 293 -701Q253 -701 229 -683Q205 -665 194 -638.5Q183 -612 183 -586Q183 -557 191 -530.5Q199 -504 218.5 -474.5Q238 -445 272 -403Q320 -346 347 -294Q374 -242 374 -193Q374 -134 347.5 -88.5Q321 -43 276 -17Q231 9 173 9Z"/><path id="i1" d="M-62 0Q-74 0 -74 -10Q-74 -19 -58 -23L-42 -26Q-22 -30 -7.5 -45.5Q7 -61 20 -89L319 -714Q324 -724 329 -727Q334 -730 338 -730Q343 -730 346.5 -727Q350 -724 350 -714L361 -80Q362 -52 368 -41.5Q374 -31 393 -26L406 -23Q418 -20 418 -11Q418 0 401 0H236Q223 0 223 -10Q223 -21 243 -23L263 -25Q280 -27 286.5 -36Q293 -45 293 -67L291 -222Q291 -248 264 -248H157Q131 -248 118 -222L53 -88Q26 -31 71 -25L85 -23Q100 -21 100 -11Q100 0 83 0ZM161 -278H273Q290 -278 290 -295L288 -568H283L152 -295Q148 -288 151 -283Q154 -278 161 -278Z"/><path id="i285" d="M-13 150Q-21 155 -28.5 154.5Q-36 154 -36 147Q-36 140 -26 133Q3 113 26.5 82.5Q50 52 50 24Q50 8 41.5 -1.5Q33 -11 24.5 -20.5Q16 -30 16 -46Q16 -68 30.5 -82Q45 -96 66 -96Q89 -96 102.5 -81.5Q116 -67 116 -43Q116 -11 97.5 26Q79 63 49.5 96Q20 129 -13 150Z"/><path id="i137" d="M129 9Q76 9 44 -32.5Q12 -74 12 -150Q12 -216 35.5 -281Q59 -346 97 -399Q135 -452 180.5 -484Q226 -516 269 -516Q316 -516 336.5 -493.5Q357 -471 357 -433Q357 -388 325.5 -343.5Q294 -299 237.5 -264Q181 -229 105 -212Q83 -207 82 -187Q81 -180 81 -172.5Q81 -165 81 -158Q81 -101 100.5 -72Q120 -43 154 -43Q192 -43 227.5 -78Q263 -113 287 -177Q290 -186 299 -186Q305 -186 306.5 -181Q308 -176 306 -169Q274 -81 228.5 -36Q183 9 129 9ZM92 -250Q90 -243 94.5 -238.5Q99 -234 106 -236Q168 -253 210 -287.5Q252 -322 273.5 -365Q295 -408 295 -449Q295 -491 262 -491Q233 -491 199 -457Q165 -423 136 -368Q107 -313 92 -250Z"/><path id="i172" d="M591 9Q555 9 537 -21Q519 -51 535 -114L612 -404Q623 -443 615.5 -458Q608 -473 594 -473Q574 -473 548 -445.5Q522 -418 493.5 -371Q465 -324 438 -264Q411 -204 388 -139Q365 -74 350 -11Q347 0 336 0H297Q283 0 286 -13L378 -404Q387 -443 380.5 -458Q374 -473 360 -473Q341 -473 315 -445.5Q289 -418 261 -371Q233 -324 206 -264Q179 -204 156 -139Q133 -74 119 -11Q116 0 105 0H64Q50 0 53 -13L148 -412Q153 -434 149.5 -446.5Q146 -459 131 -459Q113 -459 91.5 -432.5Q70 -406 43 -332Q39 -319 29 -319Q14 -319 21 -337Q43 -406 67.5 -445Q92 -484 117 -500Q142 -516 163 -516Q196 -516 210 -491.5Q224 -467 211 -411L186 -303Q185 -296 189 -295Q193 -294 196 -300Q254 -420 301 -468Q348 -516 387 -516Q424 -516 439.5 -486Q455 -456 441 -394L420 -303Q419 -296 423 -295Q427 -294 430 -300Q468 -381 501.5 -428.5Q535 -476 565 -496Q595 -516 621 -516Q658 -516 675 -486Q692 -456 675 -394L599 -104Q592 -76 598 -62Q604 -48 620 -48Q640 -48 659.5 -74.5Q679 -101 700 -175Q703 -186 713 -186Q721 -186 722.5 -180Q724 -174 722 -166Q703 -98 681 -59.5Q659 -21 636.5 -6Q614 9 591 9Z"/><path id="i153" d="M204 -605Q185 -605 172.5 -618.5Q160 -632 160 -651Q160 -678 176.5 -694Q193 -710 214 -710Q234 -710 247.5 -697.5Q261 -685 261 -665Q261 -637 244 -621Q227 -605 204 -605ZM122 10Q89 10 75 -14.5Q61 -39 74 -95L148 -412Q153 -434 149.5 -446.5Q146 -459 131 -459Q113 -459 91.5 -432.5Q70 -406 43 -332Q39 -319 29 -319Q14 -319 21 -337Q43 -406 67.5 -445Q92 -484 117 -500Q142 -516 163 -516Q198 -516 212 -491.5Q226 -467 213 -411L139 -94Q134 -72 137.5 -59.5Q141 -47 156 -47Q174 -47 195.5 -73.5Q217 -100 244 -174Q248 -187 258 -187Q273 -187 266 -169Q245 -101 219.5 -61.5Q194 -22 169 -6Q144 10 122 10Z"/><path id="i147" d="M93 216Q14 216 -27 187Q-68 158 -68 118Q-68 83 -40.5 49.5Q-13 16 61 -27Q72 -33 73.5 -40.5Q75 -48 64 -55Q36 -73 30.5 -97Q25 -121 43 -131L119 -175Q129 -180 129.5 -187.5Q130 -195 119 -201Q92 -217 78.5 -246.5Q65 -276 65 -311Q65 -365 91.5 -411.5Q118 -458 162.5 -487Q207 -516 262 -516Q285 -516 301 -510Q313 -506 319 -518Q336 -555 362.5 -576.5Q389 -598 418 -598Q439 -598 450.5 -587Q462 -576 462 -557Q462 -538 451 -526Q440 -514 423 -514Q410 -514 403.5 -519Q397 -524 392 -529Q387 -534 376 -534Q354 -534 341 -509Q337 -500 339 -492.5Q341 -485 347 -477Q373 -443 373 -391Q373 -344 352.5 -301.5Q332 -259 296.5 -229.5Q261 -200 215 -190Q197 -186 182.5 -180.5Q168 -175 146 -161L106 -137Q91 -128 98 -114.5Q105 -101 137 -89L223 -57Q279 -37 300.5 -8Q322 21 322 60Q322 108 290.5 143Q259 178 207 197Q155 216 93 216ZM132 -293Q132 -247 145.5 -226.5Q159 -206 184 -206Q216 -206 243.5 -235.5Q271 -265 288 -311.5Q305 -358 305 -408Q305 -458 292 -476.5Q279 -495 253 -495Q222 -495 194 -465.5Q166 -436 149 -390Q132 -344 132 -293ZM104 191Q143 191 177 178Q211 165 232.5 141Q254 117 254 84Q254 51 237.5 29.5Q221 8 173 -10L154 -17Q136 -24 118 -22Q100 -20 84 -12Q30 18 11 44Q-8 70 -8 101Q-8 138 19 164.5Q46 191 104 191Z"/><path id="i179" d="M154 9Q92 9 56 -42.5Q20 -94 20 -182Q20 -247 41 -307Q62 -367 96.5 -414Q131 -461 173.5 -488.5Q216 -516 259 -516Q321 -516 357 -465Q393 -414 393 -325Q393 -260 372 -200Q351 -140 316.5 -93Q282 -46 239.5 -18.5Q197 9 154 9ZM152 -15Q184 -15 214.5 -46Q245 -77 270 -128Q295 -179 310 -241.5Q325 -304 325 -367Q325 -492 260 -492Q229 -492 198 -461.5Q167 -431 142.5 -380Q118 -329 103 -266.5Q88 -204 88 -141Q88 -15 152 -15Z"/><path id="i128" d="M142 9Q87 9 51 -36.5Q15 -82 15 -153Q15 -220 36.5 -284.5Q58 -349 94.5 -401.5Q131 -454 175.5 -485Q220 -516 265 -516Q313 -516 346 -490Q351 -486 352 -483.5Q353 -481 351 -473L324 -342Q321 -328 311 -328Q300 -328 298 -343L293 -414Q290 -460 279.5 -474Q269 -488 249 -488Q221 -488 192 -460.5Q163 -433 138.5 -386.5Q114 -340 99.5 -283.5Q85 -227 85 -169Q85 -43 167 -43Q206 -43 237.5 -79Q269 -115 296 -191Q299 -201 310 -201Q316 -201 317 -196.5Q318 -192 315 -179Q305 -124 279 -82Q253 -40 217.5 -15.5Q182 9 142 9Z"/><path id="i165" d="M318 9Q267 9 235 -74L180 -219Q170 -243 155 -243Q140 -243 129 -218Q119 -196 107.5 -158.5Q96 -121 86 -77L71 -11Q68 0 57 0H18Q4 0 7 -13L153 -640Q157 -657 153 -664.5Q149 -672 135 -673L105 -676Q90 -678 92 -689Q94 -698 106 -700Q149 -707 175 -716Q201 -725 215 -737Q223 -743 229 -743Q242 -743 239 -728L146 -332Q145 -325 149 -324Q153 -323 156 -329L189 -388Q261 -516 351 -516Q385 -516 405 -498Q425 -480 425 -449Q425 -400 377.5 -351Q330 -302 253 -271Q229 -262 239 -239L297 -91Q307 -66 317 -55.5Q327 -45 342 -45Q365 -45 377 -73.5Q389 -102 398 -173Q400 -186 410 -186Q421 -186 420 -166Q415 -82 388.5 -36.5Q362 9 318 9ZM165 -288Q161 -279 164.5 -274.5Q168 -270 177 -272Q260 -293 311 -341Q362 -389 362 -447Q362 -485 333 -485Q299 -485 254 -432.5Q209 -380 165 -288Z"/><path id="i192" d="M64 0Q50 0 53 -13L148 -412Q153 -434 149.5 -446.5Q146 -459 131 -459Q113 -459 91.5 -432.5Q70 -406 43 -332Q39 -319 29 -319Q14 -319 21 -337Q43 -406 67.5 -445Q92 -484 117 -500Q142 -516 163 -516Q196 -516 210 -491.5Q224 -467 211 -411L200 -364Q199 -357 203 -356Q207 -355 210 -361Q248 -448 279 -482Q310 -516 350 -516Q377 -516 390.5 -501.5Q404 -487 404 -462Q404 -437 392 -422Q380 -407 361 -407Q345 -407 338 -415Q331 -423 327.5 -433.5Q324 -444 320 -452Q316 -460 307 -460Q292 -460 268 -422Q244 -384 216.5 -319.5Q189 -255 163.5 -175Q138 -95 119 -11Q116 0 105 0Z"/><path id="i100" d="M372 10Q368 10 364.5 7Q361 4 361 -6L356 -304Q356 -315 350 -316.5Q344 -318 339 -308L185 -6Q180 4 176 7Q172 10 168 10Q164 10 160 7Q156 4 156 -6L145 -640Q144 -668 138 -679Q132 -690 113 -694L100 -697Q88 -700 88 -709Q88 -715 93 -717.5Q98 -720 105 -720H265Q278 -720 278 -710Q278 -701 260 -697L248 -695Q231 -692 221.5 -683.5Q212 -675 212 -653L218 -174Q218 -165 224 -164Q230 -163 234 -172L316 -329Q336 -368 345 -403Q354 -438 353 -483L350 -640Q349 -668 345.5 -680Q342 -692 331 -694L318 -697Q305 -700 305 -708Q305 -720 323 -720H457Q470 -720 470 -710Q470 -700 452 -697L440 -695Q427 -693 422.5 -684Q418 -675 418 -653L420 -518Q420 -508 426 -506.5Q432 -505 436 -514L498 -632Q518 -670 518 -682Q518 -694 509 -695L499 -697Q486 -700 486 -709Q486 -720 503 -720H597Q613 -720 613 -710Q613 -699 593 -697L582 -696Q568 -695 556 -680Q544 -665 527 -631L458 -498Q438 -458 429 -423.5Q420 -389 421 -344L423 -178Q423 -169 429 -168.5Q435 -168 439 -176L658 -632Q672 -661 671.5 -676Q671 -691 654 -695L644 -697Q631 -700 631 -709Q631 -720 648 -720H761Q775 -720 775 -709Q775 -698 755 -697L744 -696Q730 -695 719.5 -683.5Q709 -672 689 -631L389 -6Q385 4 380.5 7Q376 10 372 10Z"/><path id="i215" d="M151 9Q102 9 78 -28Q54 -65 69 -123L146 -412Q159 -459 130 -459Q109 -459 88.5 -429Q68 -399 44 -331Q40 -319 30 -319Q25 -319 22 -323.5Q19 -328 21 -335Q79 -516 166 -516Q200 -516 212 -488Q224 -460 211 -411L132 -113Q121 -71 130.5 -48.5Q140 -26 165 -26Q194 -26 226.5 -54Q259 -82 288 -127Q317 -172 335 -226Q353 -280 353 -332Q353 -374 344 -398.5Q335 -423 325.5 -440Q316 -457 316 -477Q316 -516 350 -516Q398 -516 398 -410Q398 -334 376 -259.5Q354 -185 318 -124.5Q282 -64 238.5 -27.5Q195 9 151 9Z"/><path id="i63" d="M223 9Q145 9 99.5 -55Q54 -119 54 -243Q54 -317 71 -388Q88 -459 118 -520.5Q148 -582 187.5 -629.5Q227 -677 272.5 -703.5Q318 -730 366 -730Q444 -730 489.5 -666.5Q535 -603 535 -478Q535 -404 518 -333Q501 -262 471 -200.5Q441 -139 401.5 -91.5Q362 -44 316.5 -17.5Q271 9 223 9ZM221 -17Q258 -17 293.5 -46.5Q329 -76 360.5 -127.5Q392 -179 416 -246.5Q440 -314 453.5 -390Q467 -466 467 -544Q467 -704 368 -704Q331 -704 295.5 -674.5Q260 -645 228.5 -593.5Q197 -542 173 -474.5Q149 -407 135.5 -331Q122 -255 122 -177Q122 -17 221 -17Z"/><path id="i189" d="M-76 205Q-89 205 -89 194Q-89 184 -73 182L-59 180Q-39 177 -29.5 168.5Q-20 160 -15 138L118 -436Q120 -444 115.5 -448.5Q111 -453 103 -448Q93 -443 84 -437.5Q75 -432 66 -426Q57 -420 51 -422.5Q45 -425 45 -432Q45 -439 55 -446Q83 -465 113 -479Q130 -487 134 -505L147 -562Q152 -583 173 -583H191Q203 -583 209 -576Q215 -569 212 -556L205 -527Q202 -510 218 -513Q241 -516 262 -516Q336 -516 383 -474Q430 -432 430 -345Q430 -277 405 -213.5Q380 -150 339 -100Q298 -50 249 -20.5Q200 9 151 9Q124 9 100 -2Q85 -9 82 6L52 138Q47 160 52.5 167Q58 174 77 177L103 181Q121 184 121 193Q121 205 104 205ZM110 -115Q92 -16 153 -16Q188 -16 224 -45.5Q260 -75 291 -124.5Q322 -174 341 -236Q360 -298 360 -363Q360 -430 331 -459.5Q302 -489 246 -489Q196 -489 189 -455Z"/><path id="i284" d="M62 9Q41 9 28 -4.5Q15 -18 15 -38Q15 -64 33 -80Q51 -96 71 -96Q91 -96 104.5 -82.5Q118 -69 118 -49Q118 -23 100 -7Q82 9 62 9Z"/><path id="n32" d="M320 12Q187 12 122.5 -82Q58 -176 58 -349Q58 -522 122.5 -616Q187 -710 320 -710Q371 -710 408.5 -696.5Q446 -683 473 -659.5Q500 -636 518.5 -604.5Q537 -573 549 -537L448 -503Q440 -527 430 -548Q420 -569 405 -584Q390 -599 369.5 -608Q349 -617 319 -617Q245 -617 211 -560.5Q177 -504 177 -408V-290Q177 -194 211 -137.5Q245 -81 319 -81Q349 -81 369.5 -90Q390 -99 405 -114Q420 -129 430 -150Q440 -171 448 -195L549 -161Q537 -125 518.5 -93.5Q500 -62 473 -38.5Q446 -15 408.5 -1.5Q371 12 320 12Z"/><path id="n44" d="M300 12Q234 12 185.5 -12.5Q137 -37 105.5 -83Q74 -129 59 -196Q44 -263 44 -349Q44 -434 59 -501.5Q74 -569 105.5 -615Q137 -661 185.5 -685.5Q234 -710 300 -710Q366 -710 414.5 -685.5Q463 -661 494.5 -615Q526 -569 541 -501.5Q556 -434 556 -349Q556 -263 541 -196Q526 -129 494.5 -83Q463 -37 414.5 -12.5Q366 12 300 12ZM300 -81Q375 -81 406 -137.5Q437 -194 437 -291V-408Q437 -504 406 -560.5Q375 -617 300 -617Q225 -617 194 -560.5Q163 -504 163 -408V-290Q163 -194 194 -137.5Q225 -81 300 -81Z"/><path id="n45" d="M84 0V-698H345Q445 -698 497.5 -642Q550 -586 550 -488Q550 -390 497.5 -334Q445 -278 345 -278H196V0ZM196 -371H328Q432 -371 432 -467V-510Q432 -605 328 -605H196Z"/><path id="n33" d="M82 -698H290Q424 -698 488.5 -609Q553 -520 553 -349Q553 -178 488.5 -89Q424 0 290 0H82ZM283 -92Q360 -92 397.5 -143.5Q435 -195 435 -291V-407Q435 -503 397.5 -554.5Q360 -606 283 -606H193V-92Z"/><path id="m25" d="M249 0 64 -516H145L219 -300L299 -67H303L383 -300L457 -516H536L351 0Z"/><path id="m12" d="M332 -630Q297 -630 283 -644.5Q269 -659 269 -681V-697Q269 -719 283 -733.5Q297 -748 332 -748Q367 -748 381 -733.5Q395 -719 395 -697V-681Q395 -659 381 -644.5Q367 -630 332 -630ZM106 -68H292V-448H106V-516H372V-68H546V0H106Z"/><path id="m4" d="M318 12Q262 12 218.5 -7.5Q175 -27 145 -62Q115 -97 99.5 -147Q84 -197 84 -258Q84 -319 100 -369Q116 -419 146 -454.5Q176 -490 219 -509Q262 -528 317 -528Q392 -528 439 -495Q486 -462 508 -409L444 -375Q430 -415 397.5 -437Q365 -459 317 -459Q282 -459 254.5 -447.5Q227 -436 208 -415Q189 -394 179.5 -365Q170 -336 170 -302V-214Q170 -180 179.5 -151Q189 -122 208 -101Q227 -80 255 -68.5Q283 -57 319 -57Q371 -57 405 -81Q439 -105 459 -147L516 -108Q493 -56 444.5 -22Q396 12 318 12Z"/><path id="m23" d="M325 0Q266 0 238.5 -33Q211 -66 211 -118V-448H39V-516H167Q193 -516 203.5 -526.5Q214 -537 214 -563V-698H291V-516H526V-448H291V-68H526V0Z"/><path id="m18" d="M300 12Q246 12 202.5 -7Q159 -26 128.5 -61.5Q98 -97 82 -146.5Q66 -196 66 -258Q66 -319 82 -369Q98 -419 128.5 -454.5Q159 -490 202.5 -509Q246 -528 300 -528Q354 -528 397.5 -509Q441 -490 471.5 -454.5Q502 -419 518 -369Q534 -319 534 -258Q534 -196 518 -146.5Q502 -97 471.5 -61.5Q441 -26 397.5 -7Q354 12 300 12ZM300 -57Q367 -57 408 -97Q449 -137 449 -221V-295Q449 -379 408 -419Q367 -459 300 -459Q233 -459 192 -419Q151 -379 151 -295V-221Q151 -137 192 -97Q233 -57 300 -57Z"/><path id="m21" d="M77 -68H228V-448H77V-516H308V-386H313Q329 -447 373.5 -481.5Q418 -516 487 -516H559V-436H462Q393 -436 350.5 -396Q308 -356 308 -291V-68H508V0H77Z"/><path id="m22" d="M306 12Q225 12 166.5 -15.5Q108 -43 67 -89L121 -136Q158 -97 202 -76Q246 -55 308 -55Q368 -55 406.5 -76.5Q445 -98 445 -144Q445 -164 437.5 -177.5Q430 -191 417 -199Q404 -207 388 -211.5Q372 -216 354 -219L273 -231Q246 -235 214.5 -242Q183 -249 157 -264.5Q131 -280 113.5 -306Q96 -332 96 -374Q96 -413 111.5 -441.5Q127 -470 155 -489.5Q183 -509 221 -518.5Q259 -528 304 -528Q374 -528 425.5 -506Q477 -484 514 -445L462 -396Q453 -407 439.5 -418.5Q426 -430 406.5 -439.5Q387 -449 361 -455Q335 -461 301 -461Q240 -461 207.5 -440Q175 -419 175 -379Q175 -359 182.5 -345.5Q190 -332 203 -324Q216 -316 232.5 -311.5Q249 -307 266 -304L347 -292Q375 -288 406 -281Q437 -274 463 -258.5Q489 -243 506.5 -217Q524 -191 524 -149Q524 -72 464.5 -30Q405 12 306 12Z"/><path id="m1" d="M495 0Q448 0 428 -24Q408 -48 403 -84H398Q381 -39 343.5 -13.5Q306 12 243 12Q162 12 114 -30Q66 -72 66 -145Q66 -217 118.5 -256Q171 -295 288 -295H398V-346Q398 -403 366 -431.5Q334 -460 275 -460Q223 -460 190 -439.5Q157 -419 137 -384L83 -424Q93 -444 110 -463Q127 -482 152 -496.5Q177 -511 209 -519.5Q241 -528 280 -528Q371 -528 424.5 -482Q478 -436 478 -354V-70H550V0ZM257 -55Q288 -55 313.5 -62.5Q339 -70 358 -82.5Q377 -95 387.5 -112.5Q398 -130 398 -150V-235H288Q216 -235 183 -215Q150 -195 150 -157V-136Q150 -96 178.5 -75.5Q207 -55 257 -55Z"/><path id="m11" d="M98 -740H178V-432H182Q190 -451 202 -468.5Q214 -486 231.5 -499Q249 -512 273 -520Q297 -528 329 -528Q410 -528 459 -476.5Q508 -425 508 -331V0H428V-317Q428 -388 397 -422.5Q366 -457 306 -457Q282 -457 259 -451Q236 -445 218 -433Q200 -421 189 -402Q178 -383 178 -358V0H98Z"/><path id="m17" d="M98 0V-516H178V-432H182Q190 -451 202 -468.5Q214 -486 231.5 -499Q249 -512 273 -520Q297 -528 329 -528Q410 -528 459 -476.5Q508 -425 508 -331V0H428V-317Q428 -388 397 -422.5Q366 -457 306 -457Q282 -457 259 -451Q236 -445 218 -433Q200 -421 189 -402Q178 -383 178 -358V0Z"/><path id="m69" d="M454 112H331Q255 112 203.5 86.5Q152 61 120.5 9.5Q89 -42 75.5 -119Q62 -196 62 -300Q62 -416 77.5 -494.5Q93 -573 123 -621Q153 -669 197.5 -689.5Q242 -710 301 -710Q361 -710 403.5 -691Q446 -672 473 -639Q500 -606 512.5 -560.5Q525 -515 525 -463V-91H454V-148H449Q439 -122 416 -100.5Q393 -79 349 -79Q288 -79 252 -130.5Q216 -182 216 -293Q216 -404 252 -456Q288 -508 349 -508Q371 -508 387.5 -502Q404 -496 416 -486Q428 -476 436 -464Q444 -452 449 -439H454V-463Q454 -548 418.5 -597Q383 -646 303 -646Q214 -646 175.5 -577.5Q137 -509 137 -358V-229Q137 -171 145 -120.5Q153 -70 174.5 -32.5Q196 5 233.5 26.5Q271 48 331 48H454ZM375 -139Q411 -139 432.5 -159Q454 -179 454 -217V-370Q454 -408 432.5 -428Q411 -448 375 -448Q333 -448 311.5 -419.5Q290 -391 290 -324V-263Q290 -196 311.5 -167.5Q333 -139 375 -139Z"/><path id="m8" d="M561 59Q561 137 496 174.5Q431 212 301 212Q176 212 121.5 179Q67 146 67 84Q67 42 89 19Q111 -4 151 -15V-27Q129 -38 117 -55Q105 -72 105 -98Q105 -138 131.5 -158Q158 -178 198 -188V-192Q150 -213 123.5 -254Q97 -295 97 -350Q97 -389 111 -422Q125 -455 151.5 -478.5Q178 -502 215 -515Q252 -528 297 -528Q355 -528 399 -507V-516Q399 -546 413 -566Q427 -586 461 -586H556V-516H440V-481Q468 -457 483 -424Q498 -391 498 -350Q498 -311 483.5 -278Q469 -245 443 -221.5Q417 -198 379.5 -185Q342 -172 297 -172Q284 -172 272 -173Q260 -174 248 -176Q236 -174 223 -169.5Q210 -165 199 -157.5Q188 -150 181 -140Q174 -130 174 -117Q174 -94 197 -86.5Q220 -79 257 -79H371Q471 -79 516 -41.5Q561 -4 561 59ZM486 63Q486 32 461 13.5Q436 -5 374 -5H195Q143 16 143 65Q143 99 170 123.5Q197 148 260 148H338Q408 148 447 126.5Q486 105 486 63ZM297 -234Q357 -234 385.5 -262Q414 -290 414 -336V-365Q414 -411 385.5 -438.5Q357 -466 297 -466Q237 -466 209 -438.5Q181 -411 181 -365V-336Q181 -290 209 -262Q237 -234 297 -234Z"/><path id="m16" d="M54 0V-516H128V-456H132Q144 -486 166 -507Q188 -528 231 -528Q276 -528 298 -505.5Q320 -483 325 -447H328Q342 -482 368 -505Q394 -528 440 -528Q503 -528 524.5 -484Q546 -440 546 -358V0H472V-345Q472 -411 458.5 -436.5Q445 -462 409 -462Q377 -462 357 -441.5Q337 -421 337 -379V0H263V-345Q263 -411 249.5 -436.5Q236 -462 201 -462Q169 -462 148.5 -441.5Q128 -421 128 -379V0Z"/><path id="m15" d="M80 -68H260V-672H80V-740H340V-68H520V0H80Z"/><path id="m75" d="M300 9Q259 9 242.5 -8Q226 -25 226 -51V-69Q226 -95 242.5 -112Q259 -129 300 -129Q341 -129 357.5 -112Q374 -95 374 -69V-51Q374 -25 357.5 -8Q341 9 300 9Z"/><path id="m102" d="M90 138 438 -760H510L162 138Z"/><path id="m70" d="M155 -262V-346H445V-262Z"/><path id="m27" d="M61 0 253 -262 66 -516H162L240 -407L302 -321H306L366 -407L443 -516H535L346 -263L540 0H444L357 -121L298 -203H294L237 -121L153 0Z"/><path id="i14" d="M256 9Q150 9 102.5 -58Q55 -125 55 -252Q55 -313 70 -379Q85 -445 113.5 -507.5Q142 -570 182 -620Q222 -670 272.5 -700Q323 -730 382 -730Q452 -730 509 -683Q519 -675 516 -661L486 -510Q483 -494 471 -494Q459 -494 459 -510L458 -549Q456 -632 434 -667Q412 -702 371 -702Q332 -702 296 -670.5Q260 -639 229 -586.5Q198 -534 174.5 -470.5Q151 -407 138 -343Q125 -279 125 -224Q125 -134 152.5 -77Q180 -20 244 -20Q282 -20 311.5 -47.5Q341 -75 372 -142L394 -189Q399 -201 409 -201Q425 -201 420 -182L380 -26Q376 -11 364 -8Q347 -2 315 3.5Q283 9 256 9Z"/><path id="i167" d="M74 10Q41 10 27 -14.5Q13 -39 26 -95L153 -640Q158 -658 153.5 -665Q149 -672 135 -673L105 -676Q90 -677 92 -689Q94 -698 106 -700Q142 -706 170 -714.5Q198 -723 215 -737Q223 -743 230 -743Q242 -743 239 -728L91 -94Q86 -72 89.5 -59.5Q93 -47 108 -47Q126 -47 147.5 -73.5Q169 -100 196 -174Q200 -187 210 -187Q225 -187 218 -169Q197 -101 171.5 -61.5Q146 -22 121 -6Q96 10 74 10Z"/><path id="i151" d="M322 9Q286 9 268 -21Q250 -51 266 -114L343 -404Q354 -443 346.5 -458Q339 -473 325 -473Q303 -473 275.5 -445.5Q248 -418 218.5 -370.5Q189 -323 161.5 -263.5Q134 -204 111 -138.5Q88 -73 74 -11Q71 0 60 0H18Q4 0 7 -13L153 -640Q158 -658 153.5 -665Q149 -672 135 -673L105 -676Q90 -677 92 -689Q94 -698 106 -700Q142 -706 170 -714.5Q198 -723 215 -737Q223 -743 230 -743Q242 -743 239 -728L141 -303Q140 -296 144 -295Q148 -294 151 -300Q191 -382 227 -429Q263 -476 294.5 -496Q326 -516 352 -516Q389 -516 406 -486Q423 -456 406 -394L330 -104Q323 -76 329 -62Q335 -48 351 -48Q371 -48 390 -74.5Q409 -101 431 -175Q434 -186 444 -186Q452 -186 453.5 -180Q455 -174 453 -166Q434 -98 412 -59.5Q390 -21 367.5 -6Q345 9 322 9Z"/><path id="i146" d="M32 0Q19 0 22 -13L123 -445Q132 -482 99 -482H78Q62 -482 62 -496Q62 -510 80 -510Q111 -510 126.5 -518Q142 -526 147 -550Q160 -607 185.5 -651.5Q211 -696 247 -722Q283 -748 326 -748Q361 -748 382.5 -731.5Q404 -715 404 -686Q404 -664 392.5 -650.5Q381 -637 364 -637Q343 -637 336.5 -649Q330 -661 328.5 -677Q327 -693 322 -705Q317 -717 299 -717Q276 -717 258.5 -694.5Q241 -672 227 -610L207 -523Q204 -510 218 -510H298Q317 -510 313 -496Q310 -482 295 -482H208Q198 -482 195 -472L88 -11Q85 0 74 0Z"/><path id="i115" d="M89 9Q53 9 33 -22Q13 -53 13 -113Q13 -170 29 -227.5Q45 -285 73 -337Q101 -389 136.5 -429Q172 -469 211.5 -492.5Q251 -516 290 -516Q309 -516 326 -508.5Q343 -501 354 -485Q360 -476 366 -476Q372 -476 378 -485Q389 -501 396 -505.5Q403 -510 409 -510Q422 -510 419 -496L330 -113Q315 -48 350 -48Q373 -48 391.5 -79Q410 -110 429 -175Q432 -186 442 -186Q449 -186 451 -180Q453 -174 451 -166Q432 -72 400 -31.5Q368 9 323 9Q284 9 267.5 -24Q251 -57 264 -114L277 -169Q279 -176 274.5 -177Q270 -178 267 -172Q212 -71 169.5 -31Q127 9 89 9ZM114 -42Q138 -42 167 -71Q196 -100 224.5 -146Q253 -192 277 -245Q301 -298 315.5 -347Q330 -396 330 -430Q330 -491 287 -491Q261 -491 232 -467.5Q203 -444 176.5 -404Q150 -364 128.5 -313.5Q107 -263 94 -208.5Q81 -154 81 -102Q81 -67 89.5 -54.5Q98 -42 114 -42Z"/><path id="i13" d="M-22 0Q-36 0 -36 -10Q-36 -21 -16 -24L4 -27Q26 -30 34 -37.5Q42 -45 47 -66L183 -654Q188 -674 183 -681.5Q178 -689 158 -693L138 -697Q125 -700 125 -708Q125 -720 143 -720H334Q401 -720 443 -683Q485 -646 485 -587Q485 -531 445 -481Q405 -431 338 -408Q333 -407 333 -403.5Q333 -400 338 -398Q390 -379 417 -337Q444 -295 444 -239Q444 -173 409 -118.5Q374 -64 314.5 -32Q255 0 182 0ZM252 -411Q296 -411 332.5 -434Q369 -457 391 -496.5Q413 -536 413 -583Q413 -636 386.5 -665.5Q360 -695 313 -695Q261 -695 252 -655L209 -466Q202 -436 212 -423.5Q222 -411 252 -411ZM185 -25Q238 -25 280 -53.5Q322 -82 346.5 -132Q371 -182 371 -244Q371 -312 339.5 -349Q308 -386 251 -386Q189 -386 178 -333L123 -94Q107 -25 185 -25Z"/><path id="i56" d="M259 -10Q254 -10 250 -13Q246 -16 246 -26L236 -636Q236 -643 231.5 -643Q227 -643 225 -637L78 -86Q71 -58 77.5 -43.5Q84 -29 108 -25L120 -23Q132 -22 132 -12Q132 0 113 0H-28Q-43 0 -43 -10Q-43 -21 -27 -23L-13 -25Q14 -29 27 -43.5Q40 -58 47 -86L198 -654Q203 -675 198 -682Q193 -689 171 -693L154 -696Q138 -699 138 -709Q138 -720 156 -720H276Q305 -720 305 -690L311 -193Q311 -186 315.5 -185.5Q320 -185 323 -191L565 -695Q577 -720 603 -720H724Q736 -720 736 -710Q736 -700 719 -697L695 -693Q673 -689 665 -682Q657 -675 652 -654L536 -66Q532 -45 536.5 -38Q541 -31 561 -27L578 -24Q588 -23 591 -19.5Q594 -16 594 -12Q594 0 576 0H398Q384 0 384 -10Q384 -20 400 -23L424 -27Q446 -31 454.5 -38Q463 -45 467 -66L580 -633Q582 -640 577 -641.5Q572 -643 569 -637L277 -26Q273 -16 268.5 -13Q264 -10 259 -10Z"/><path id="i73" d="M-22 0Q-36 0 -36 -10Q-36 -21 -16 -24L4 -27Q26 -30 34.5 -37.5Q43 -45 47 -66L183 -654Q187 -671 184 -680Q181 -689 158 -693L138 -697Q125 -700 125 -708Q125 -720 143 -720H338Q421 -720 465 -675Q509 -630 509 -562Q509 -499 476.5 -445.5Q444 -392 386.5 -359Q329 -326 252 -326H193Q177 -326 172 -309L116 -70Q111 -48 118.5 -40Q126 -32 151 -29L199 -23Q208 -22 208 -13Q208 0 190 0ZM195 -406Q189 -380 200.5 -365.5Q212 -351 249 -351Q299 -351 334.5 -372Q370 -393 392.5 -426.5Q415 -460 425.5 -498.5Q436 -537 436 -572Q436 -627 407 -661Q378 -695 322 -695Q261 -695 252 -655Z"/><path id="i221" d="M33 10Q5 10 -9.5 -5.5Q-24 -21 -24 -46Q-24 -69 -12.5 -84Q-1 -99 18 -99Q34 -99 41.5 -91Q49 -83 53 -72.5Q57 -62 62 -54Q67 -46 78 -46Q103 -46 131.5 -100Q160 -154 186 -238Q191 -252 192 -263Q193 -274 192 -288L184 -412Q183 -438 175 -448.5Q167 -459 155 -459Q133 -459 113 -432.5Q93 -406 80 -332Q77 -319 67 -319Q53 -319 56 -337Q68 -406 89.5 -445Q111 -484 135.5 -500Q160 -516 181 -516Q212 -516 229.5 -494.5Q247 -473 250 -421L253 -374Q254 -368 258.5 -367.5Q263 -367 266 -373Q302 -452 335.5 -484Q369 -516 406 -516Q434 -516 448.5 -500.5Q463 -485 463 -460Q463 -437 452 -422Q441 -407 421 -407Q405 -407 397.5 -415Q390 -423 386 -433.5Q382 -444 377.5 -452Q373 -460 363 -460Q348 -460 329 -437.5Q310 -415 293 -378Q276 -341 265 -296Q262 -282 261.5 -271Q261 -260 262 -246L271 -100Q273 -69 282 -56Q291 -43 306 -43Q325 -43 345 -71.5Q365 -100 378 -174Q381 -187 392 -187Q404 -187 402 -169Q393 -101 373.5 -62Q354 -23 331 -7Q308 9 287 9Q250 9 230 -14.5Q210 -38 206 -95L201 -170Q200 -177 196 -177Q192 -177 189 -171L171 -127Q114 10 33 10Z"/><path id="i23" d="M-22 0Q-36 0 -36 -10Q-36 -21 -16 -24L4 -27Q26 -30 34.5 -37.5Q43 -45 47 -66L183 -654Q188 -675 183 -682Q178 -689 158 -693L138 -697Q125 -700 125 -708Q125 -720 143 -720H477Q503 -720 498 -697L467 -531Q464 -514 451 -514Q437 -514 439 -527L442 -562Q447 -613 433.5 -642Q420 -671 393.5 -683Q367 -695 332 -695Q292 -695 274 -683.5Q256 -672 249 -643L194 -402Q191 -388 205 -388H256Q300 -388 320 -435L342 -485Q347 -498 358 -498Q364 -498 367.5 -493.5Q371 -489 369 -481L317 -256Q312 -239 300 -239Q288 -239 288 -252L289 -301Q290 -336 280.5 -347Q271 -358 248 -358H198Q183 -358 180 -344L122 -93Q114 -57 129 -41Q144 -25 193 -25Q223 -25 252.5 -34.5Q282 -44 308.5 -71Q335 -98 357 -149L381 -205Q386 -218 397 -218Q412 -218 407 -201L356 -23Q350 0 326 0Z"/><path id="i267" d="M32 0Q19 0 22 -13L123 -445Q132 -482 99 -482H78Q62 -482 62 -496Q62 -510 80 -510Q111 -510 126.5 -518Q142 -526 147 -550Q160 -607 186.5 -651.5Q213 -696 254 -722Q295 -748 350 -748Q409 -748 436.5 -721.5Q464 -695 464 -666Q464 -644 452.5 -630.5Q441 -617 424 -617Q405 -617 397 -627.5Q389 -638 385.5 -653Q382 -668 377.5 -683Q373 -698 361.5 -708.5Q350 -719 325 -719Q282 -719 259.5 -685Q237 -651 221 -583L207 -523Q204 -510 218 -510H342Q388 -510 404.5 -490Q421 -470 410 -421L334 -94Q329 -72 332.5 -59.5Q336 -47 351 -47Q369 -47 390.5 -73.5Q412 -100 439 -174Q443 -187 453 -187Q468 -187 461 -169Q440 -101 414.5 -61.5Q389 -22 364 -6Q339 10 317 10Q284 10 270 -14.5Q256 -39 269 -95L348 -430Q354 -456 349.5 -469Q345 -482 323 -482H208Q198 -482 195 -472L88 -11Q85 0 74 0Z"/><path id="n35" d="M86 0V-698H535V-604H198V-401H504V-307H198V0Z"/><path id="n41" d="M108 0V-698H220V-94H538V0Z"/></defs><rect x="1.0" y="1.0" width="1598.0" height="328.0" fill="none" stroke="#E8E1D1" stroke-width="2.0"/><g fill="#DE5B40"><use href="#n110" transform="matrix(0.017 0 0 0.017 72 66)"/><use href="#n38" transform="matrix(0.017 0 0 0.017 97.8 66)"/><use href="#n38" transform="matrix(0.017 0 0 0.017 110.8 66)"/><use href="#n38" transform="matrix(0.017 0 0 0.017 149.5 66)"/><use href="#n43" transform="matrix(0.017 0 0 0.017 162.4 66)"/><use href="#n48" transform="matrix(0.017 0 0 0.017 175.4 66)"/><use href="#n49" transform="matrix(0.017 0 0 0.017 188.3 66)"/><use href="#n47" transform="matrix(0.017 0 0 0.017 201.2 66)"/><use href="#n50" transform="matrix(0.017 0 0 0.017 214.1 66)"/><use href="#n42" transform="matrix(0.017 0 0 0.017 227 66)"/><use href="#n34" transform="matrix(0.017 0 0 0.017 240 66)"/><use href="#n43" transform="matrix(0.017 0 0 0.017 252.9 66)"/><use href="#n49" transform="matrix(0.017 0 0 0.017 265.8 66)"/><use href="#n48" transform="matrix(0.017 0 0 0.017 278.7 66)"/></g><g fill="#E8E1D1"><use href="#s73" transform="matrix(0.038 0 0 0.038 72 122)"/><use href="#s222" transform="matrix(0.038 0 0 0.038 89.7 122)"/><use href="#s202" transform="matrix(0.038 0 0 0.038 104.9 122)"/><use href="#s151" transform="matrix(0.038 0 0 0.038 114.8 122)"/><use href="#s179" transform="matrix(0.038 0 0 0.038 132.6 122)"/><use href="#s173" transform="matrix(0.038 0 0 0.038 148.2 122)"/><use href="#s293" transform="matrix(0.038 0 0 0.038 172.5 122)"/><use href="#s86" transform="matrix(0.038 0 0 0.038 182.9 122)"/><use href="#s222" transform="matrix(0.038 0 0 0.038 199.5 122)"/><use href="#s189" transform="matrix(0.038 0 0 0.038 214.2 122)"/><use href="#s137" transform="matrix(0.038 0 0 0.038 231.1 122)"/><use href="#s80" transform="matrix(0.038 0 0 0.038 244.6 122)"/><use href="#s128" transform="matrix(0.038 0 0 0.038 260.1 122)"/><use href="#s192" transform="matrix(0.038 0 0 0.038 272.9 122)"/><use href="#s153" transform="matrix(0.038 0 0 0.038 285 122)"/><use href="#s189" transform="matrix(0.038 0 0 0.038 293.5 122)"/><use href="#s202" transform="matrix(0.038 0 0 0.038 310.4 122)"/><use href="#s293" transform="matrix(0.038 0 0 0.038 326.7 122)"/><use href="#s48" transform="matrix(0.038 0 0 0.038 337.1 122)"/><use href="#s115" transform="matrix(0.038 0 0 0.038 345.9 122)"/><use href="#s215" transform="matrix(0.038 0 0 0.038 360.4 122)"/><use href="#s115" transform="matrix(0.038 0 0 0.038 374.9 122)"/><use href="#s80" transform="matrix(0.038 0 0 0.038 390 122)"/><use href="#s128" transform="matrix(0.038 0 0 0.038 405.5 122)"/><use href="#s192" transform="matrix(0.038 0 0 0.038 418.4 122)"/><use href="#s153" transform="matrix(0.038 0 0 0.038 430.5 122)"/><use href="#s189" transform="matrix(0.038 0 0 0.038 438.9 122)"/><use href="#s202" transform="matrix(0.038 0 0 0.038 455.8 122)"/><use href="#s293" transform="matrix(0.038 0 0 0.038 472.1 122)"/><use href="#s48" transform="matrix(0.038 0 0 0.038 482.6 122)"/><use href="#s115" transform="matrix(0.038 0 0 0.038 491.3 122)"/><use href="#s215" transform="matrix(0.038 0 0 0.038 505.8 122)"/><use href="#s115" transform="matrix(0.038 0 0 0.038 520.3 122)"/><use href="#s293" transform="matrix(0.038 0 0 0.038 541.9 122)"/><use href="#s80" transform="matrix(0.038 0 0 0.038 552.4 122)"/><use href="#s75" transform="matrix(0.038 0 0 0.038 567.8 122)"/><use href="#s51" transform="matrix(0.038 0 0 0.038 588 122)"/></g><g fill="#E8E1D1"><use href="#s32" transform="matrix(0.038 0 0 0.038 72 168)"/><use href="#s115" transform="matrix(0.038 0 0 0.038 86.3 168)"/><use href="#s196" transform="matrix(0.038 0 0 0.038 101.5 168)"/><use href="#s202" transform="matrix(0.038 0 0 0.038 113.2 168)"/><use href="#s1" transform="matrix(0.038 0 0 0.038 123 168)"/><use href="#s73" transform="matrix(0.038 0 0 0.038 140 168)"/><use href="#s39" transform="matrix(0.038 0 0 0.038 157.7 168)"/><use href="#s293" transform="matrix(0.038 0 0 0.038 173.6 168)"/><use href="#s57" transform="matrix(0.038 0 0 0.038 184.1 168)"/><use href="#s137" transform="matrix(0.038 0 0 0.038 203.9 168)"/><use href="#s221" transform="matrix(0.038 0 0 0.038 217.4 168)"/><use href="#s202" transform="matrix(0.038 0 0 0.038 232 168)"/><use href="#s284" transform="matrix(0.038 0 0 0.038 241.9 168)"/><use href="#s163" transform="matrix(0.038 0 0 0.038 250 168)"/><use href="#s196" transform="matrix(0.038 0 0 0.038 258.1 168)"/><use href="#s293" transform="matrix(0.038 0 0 0.038 276.3 168)"/><use href="#s76" transform="matrix(0.038 0 0 0.038 286.7 168)"/><use href="#s137" transform="matrix(0.038 0 0 0.038 305.3 168)"/><use href="#s115" transform="matrix(0.038 0 0 0.038 318.8 168)"/><use href="#s128" transform="matrix(0.038 0 0 0.038 334 168)"/><use href="#s202" transform="matrix(0.038 0 0 0.038 346.9 168)"/><use href="#s293" transform="matrix(0.038 0 0 0.038 363.2 168)"/><use href="#s86" transform="matrix(0.038 0 0 0.038 373.6 168)"/><use href="#s115" transform="matrix(0.038 0 0 0.038 388.7 168)"/><use href="#s153" transform="matrix(0.038 0 0 0.038 403.9 168)"/><use href="#s167" transform="matrix(0.038 0 0 0.038 412.3 168)"/><use href="#s216" transform="matrix(0.038 0 0 0.038 420.4 168)"/><use href="#s153" transform="matrix(0.038 0 0 0.038 443.1 168)"/><use href="#s173" transform="matrix(0.038 0 0 0.038 451.5 168)"/><use href="#s133" transform="matrix(0.038 0 0 0.038 469.4 168)"/><use href="#s293" transform="matrix(0.038 0 0 0.038 493.2 168)"/><use href="#s33" transform="matrix(0.038 0 0 0.038 503.7 168)"/><use href="#s153" transform="matrix(0.038 0 0 0.038 523.5 168)"/><use href="#s202" transform="matrix(0.038 0 0 0.038 532 168)"/><use href="#s293" transform="matrix(0.038 0 0 0.038 548.3 168)"/><use href="#s51" transform="matrix(0.038 0 0 0.038 558.7 168)"/><use href="#s153" transform="matrix(0.038 0 0 0.038 574.4 168)"/><use href="#s173" transform="matrix(0.038 0 0 0.038 582.9 168)"/><use href="#s205" transform="matrix(0.038 0 0 0.038 600.7 168)"/><use href="#s221" transform="matrix(0.038 0 0 0.038 618 168)"/></g><g fill="#8E8676"><use href="#i39" transform="matrix(0.025 0 0 0.025 72 218)"/><use href="#i173" transform="matrix(0.025 0 0 0.025 78.2 218)"/><use href="#i196" transform="matrix(0.025 0 0 0.025 95.5 218)"/><use href="#i202" transform="matrix(0.025 0 0 0.025 103.1 218)"/><use href="#i205" transform="matrix(0.025 0 0 0.025 109.9 218)"/><use href="#i133" transform="matrix(0.025 0 0 0.025 122.6 218)"/><use href="#i222" transform="matrix(0.025 0 0 0.025 133.7 218)"/><use href="#i286" transform="matrix(0.025 0 0 0.025 144.2 218)"/><use href="#i19" transform="matrix(0.025 0 0 0.025 155.9 218)"/><use href="#i80" transform="matrix(0.025 0 0 0.025 169 218)"/><use href="#i1" transform="matrix(0.025 0 0 0.025 179.6 218)"/><use href="#i285" transform="matrix(0.025 0 0 0.025 191 218)"/><use href="#i196" transform="matrix(0.025 0 0 0.025 200.8 218)"/><use href="#i222" transform="matrix(0.025 0 0 0.025 208.3 218)"/><use href="#i196" transform="matrix(0.025 0 0 0.025 218.8 218)"/><use href="#i202" transform="matrix(0.025 0 0 0.025 226.3 218)"/><use href="#i137" transform="matrix(0.025 0 0 0.025 233 218)"/><use href="#i172" transform="matrix(0.025 0 0 0.025 241.7 218)"/><use href="#i133" transform="matrix(0.025 0 0 0.025 264.5 218)"/><use href="#i137" transform="matrix(0.025 0 0 0.025 276.4 218)"/><use href="#i196" transform="matrix(0.025 0 0 0.025 285.1 218)"/><use href="#i153" transform="matrix(0.025 0 0 0.025 292.6 218)"/><use href="#i147" transform="matrix(0.025 0 0 0.025 299.5 218)"/><use href="#i173" transform="matrix(0.025 0 0 0.025 309.5 218)"/><use href="#i285" transform="matrix(0.025 0 0 0.025 322.5 218)"/><use href="#i19" transform="matrix(0.025 0 0 0.025 332.2 218)"/><use href="#i179" transform="matrix(0.025 0 0 0.025 345.7 218)"/><use href="#i128" transform="matrix(0.025 0 0 0.025 356 218)"/><use href="#i165" transform="matrix(0.025 0 0 0.025 364.8 218)"/><use href="#i137" transform="matrix(0.025 0 0 0.025 375.7 218)"/><use href="#i192" transform="matrix(0.025 0 0 0.025 384.4 218)"/><use href="#i285" transform="matrix(0.025 0 0 0.025 392.4 218)"/><use href="#i1" transform="matrix(0.025 0 0 0.025 402.1 218)"/><use href="#i100" transform="matrix(0.025 0 0 0.025 411.9 218)"/><use href="#i80" transform="matrix(0.025 0 0 0.025 427.9 218)"/><use href="#i285" transform="matrix(0.025 0 0 0.025 438.5 218)"/><use href="#i19" transform="matrix(0.025 0 0 0.025 448.2 218)"/><use href="#i137" transform="matrix(0.025 0 0 0.025 461.7 218)"/><use href="#i215" transform="matrix(0.025 0 0 0.025 470.4 218)"/><use href="#i80" transform="matrix(0.025 0 0 0.025 480.7 218)"/><use href="#i137" transform="matrix(0.025 0 0 0.025 491.2 218)"/><use href="#i128" transform="matrix(0.025 0 0 0.025 500 218)"/><use href="#i63" transform="matrix(0.025 0 0 0.025 508.7 218)"/><use href="#i189" transform="matrix(0.025 0 0 0.025 522.2 218)"/><use href="#i196" transform="matrix(0.025 0 0 0.025 533.5 218)"/><use href="#i284" transform="matrix(0.025 0 0 0.025 541 218)"/></g><rect x="900" y="40" width="0.8" height="200" fill="#8E8676"/><g fill="#DE5B40"><use href="#n110" transform="matrix(0.017 0 0 0.017 948 66)"/><use href="#n38" transform="matrix(0.017 0 0 0.017 973.8 66)"/><use href="#n38" transform="matrix(0.017 0 0 0.017 986.8 66)"/><use href="#n38" transform="matrix(0.017 0 0 0.017 999.7 66)"/><use href="#n32" transform="matrix(0.017 0 0 0.017 1038.4 66)"/><use href="#n44" transform="matrix(0.017 0 0 0.017 1051.4 66)"/><use href="#n47" transform="matrix(0.017 0 0 0.017 1064.3 66)"/><use href="#n47" transform="matrix(0.017 0 0 0.017 1077.2 66)"/><use href="#n34" transform="matrix(0.017 0 0 0.017 1090.1 66)"/><use href="#n48" transform="matrix(0.017 0 0 0.017 1103 66)"/><use href="#n45" transform="matrix(0.017 0 0 0.017 1116 66)"/><use href="#n44" transform="matrix(0.017 0 0 0.017 1128.9 66)"/><use href="#n43" transform="matrix(0.017 0 0 0.017 1141.8 66)"/><use href="#n33" transform="matrix(0.017 0 0 0.017 1154.7 66)"/><use href="#n34" transform="matrix(0.017 0 0 0.017 1167.6 66)"/><use href="#n43" transform="matrix(0.017 0 0 0.017 1180.6 66)"/><use href="#n32" transform="matrix(0.017 0 0 0.017 1193.5 66)"/><use href="#n34" transform="matrix(0.017 0 0 0.017 1206.4 66)"/></g><g fill="#E8E1D1"><use href="#m25" transform="matrix(0.025 0 0 0.025 948 118)"/><use href="#m12" transform="matrix(0.025 0 0 0.025 963 118)"/><use href="#m4" transform="matrix(0.025 0 0 0.025 978 118)"/><use href="#m23" transform="matrix(0.025 0 0 0.025 993 118)"/><use href="#m18" transform="matrix(0.025 0 0 0.025 1008 118)"/><use href="#m21" transform="matrix(0.025 0 0 0.025 1023 118)"/><use href="#m12" transform="matrix(0.025 0 0 0.025 1038 118)"/><use href="#m22" transform="matrix(0.025 0 0 0.025 1053 118)"/><use href="#m1" transform="matrix(0.025 0 0 0.025 1068 118)"/><use href="#m1" transform="matrix(0.025 0 0 0.025 1083 118)"/><use href="#m4" transform="matrix(0.025 0 0 0.025 1098 118)"/><use href="#m4" transform="matrix(0.025 0 0 0.025 1113 118)"/><use href="#m11" transform="matrix(0.025 0 0 0.025 1128 118)"/><use href="#m12" transform="matrix(0.025 0 0 0.025 1143 118)"/><use href="#m17" transform="matrix(0.025 0 0 0.025 1158 118)"/><use href="#m23" transform="matrix(0.025 0 0 0.025 1173 118)"/><use href="#m1" transform="matrix(0.025 0 0 0.025 1188 118)"/><use href="#m69" transform="matrix(0.025 0 0 0.025 1203 118)"/><use href="#m8" transform="matrix(0.025 0 0 0.025 1218 118)"/><use href="#m16" transform="matrix(0.025 0 0 0.025 1233 118)"/><use href="#m1" transform="matrix(0.025 0 0 0.025 1248 118)"/><use href="#m12" transform="matrix(0.025 0 0 0.025 1263 118)"/><use href="#m15" transform="matrix(0.025 0 0 0.025 1278 118)"/><use href="#m75" transform="matrix(0.025 0 0 0.025 1293 118)"/><use href="#m4" transform="matrix(0.025 0 0 0.025 1308 118)"/><use href="#m18" transform="matrix(0.025 0 0 0.025 1323 118)"/><use href="#m16" transform="matrix(0.025 0 0 0.025 1338 118)"/></g><g fill="#E8E1D1"><use href="#m12" transform="matrix(0.025 0 0 0.025 948 162)"/><use href="#m17" transform="matrix(0.025 0 0 0.025 963 162)"/><use href="#m102" transform="matrix(0.025 0 0 0.025 978 162)"/><use href="#m25" transform="matrix(0.025 0 0 0.025 993 162)"/><use href="#m12" transform="matrix(0.025 0 0 0.025 1008 162)"/><use href="#m4" transform="matrix(0.025 0 0 0.025 1023 162)"/><use href="#m23" transform="matrix(0.025 0 0 0.025 1038 162)"/><use href="#m18" transform="matrix(0.025 0 0 0.025 1053 162)"/><use href="#m21" transform="matrix(0.025 0 0 0.025 1068 162)"/><use href="#m70" transform="matrix(0.025 0 0 0.025 1083 162)"/><use href="#m12" transform="matrix(0.025 0 0 0.025 1098 162)"/><use href="#m22" transform="matrix(0.025 0 0 0.025 1113 162)"/><use href="#m1" transform="matrix(0.025 0 0 0.025 1128 162)"/><use href="#m1" transform="matrix(0.025 0 0 0.025 1143 162)"/><use href="#m4" transform="matrix(0.025 0 0 0.025 1158 162)"/><use href="#m70" transform="matrix(0.025 0 0 0.025 1173 162)"/><use href="#m4" transform="matrix(0.025 0 0 0.025 1188 162)"/><use href="#m11" transform="matrix(0.025 0 0 0.025 1203 162)"/><use href="#m12" transform="matrix(0.025 0 0 0.025 1218 162)"/><use href="#m17" transform="matrix(0.025 0 0 0.025 1233 162)"/><use href="#m23" transform="matrix(0.025 0 0 0.025 1248 162)"/><use href="#m11" transform="matrix(0.025 0 0 0.025 1263 162)"/><use href="#m1" transform="matrix(0.025 0 0 0.025 1278 162)"/></g><g fill="#E8E1D1"><use href="#m27" transform="matrix(0.025 0 0 0.025 948 206)"/><use href="#m75" transform="matrix(0.025 0 0 0.025 963 206)"/><use href="#m4" transform="matrix(0.025 0 0 0.025 978 206)"/><use href="#m18" transform="matrix(0.025 0 0 0.025 993 206)"/><use href="#m16" transform="matrix(0.025 0 0 0.025 1008 206)"/><use href="#m102" transform="matrix(0.025 0 0 0.025 1023 206)"/><use href="#m21" transform="matrix(0.025 0 0 0.025 1038 206)"/><use href="#m18" transform="matrix(0.025 0 0 0.025 1053 206)"/><use href="#m23" transform="matrix(0.025 0 0 0.025 1068 206)"/><use href="#m4" transform="matrix(0.025 0 0 0.025 1083 206)"/><use href="#m12" transform="matrix(0.025 0 0 0.025 1098 206)"/><use href="#m25" transform="matrix(0.025 0 0 0.025 1113 206)"/><use href="#m4" transform="matrix(0.025 0 0 0.025 1128 206)"/><use href="#m1" transform="matrix(0.025 0 0 0.025 1143 206)"/><use href="#m22" transform="matrix(0.025 0 0 0.025 1158 206)"/><use href="#m22" transform="matrix(0.025 0 0 0.025 1173 206)"/><use href="#m12" transform="matrix(0.025 0 0 0.025 1188 206)"/></g><rect x="72" y="257.6" width="1456" height="0.9" fill="#E8E1D1"/><g fill="#8E8676"><use href="#i14" transform="matrix(0.021 0 0 0.021 72 298)"/><use href="#i179" transform="matrix(0.021 0 0 0.021 82 298)"/><use href="#i167" transform="matrix(0.021 0 0 0.021 90.7 298)"/><use href="#i179" transform="matrix(0.021 0 0 0.021 95.7 298)"/><use href="#i189" transform="matrix(0.021 0 0 0.021 104.4 298)"/><use href="#i151" transform="matrix(0.021 0 0 0.021 113.9 298)"/><use href="#i179" transform="matrix(0.021 0 0 0.021 123.8 298)"/><use href="#i173" transform="matrix(0.021 0 0 0.021 132.5 298)"/><use href="#i284" transform="matrix(0.021 0 0 0.021 143.5 298)"/><use href="#i80" transform="matrix(0.021 0 0 0.021 151.7 298)"/><use href="#i137" transform="matrix(0.021 0 0 0.021 160.6 298)"/><use href="#i202" transform="matrix(0.021 0 0 0.021 167.9 298)"/><use href="#i153" transform="matrix(0.021 0 0 0.021 177.1 298)"/><use href="#i173" transform="matrix(0.021 0 0 0.021 183.2 298)"/><use href="#i39" transform="matrix(0.021 0 0 0.021 197.7 298)"/><use href="#i173" transform="matrix(0.021 0 0 0.021 203 298)"/><use href="#i196" transform="matrix(0.021 0 0 0.021 213.9 298)"/><use href="#i202" transform="matrix(0.021 0 0 0.021 220.2 298)"/><use href="#i192" transform="matrix(0.021 0 0 0.021 226 298)"/><use href="#i205" transform="matrix(0.021 0 0 0.021 233.7 298)"/><use href="#i172" transform="matrix(0.021 0 0 0.021 244.3 298)"/><use href="#i137" transform="matrix(0.021 0 0 0.021 260 298)"/><use href="#i173" transform="matrix(0.021 0 0 0.021 267.3 298)"/><use href="#i202" transform="matrix(0.021 0 0 0.021 278.2 298)"/><use href="#i80" transform="matrix(0.021 0 0 0.021 287.5 298)"/><use href="#i137" transform="matrix(0.021 0 0 0.021 296.4 298)"/><use href="#i192" transform="matrix(0.021 0 0 0.021 303.7 298)"/><use href="#i153" transform="matrix(0.021 0 0 0.021 311.5 298)"/><use href="#i146" transform="matrix(0.021 0 0 0.021 317.5 298)"/><use href="#i115" transform="matrix(0.021 0 0 0.021 326.8 298)"/><use href="#i173" transform="matrix(0.021 0 0 0.021 336.8 298)"/><use href="#i133" transform="matrix(0.021 0 0 0.021 347.7 298)"/><use href="#i39" transform="matrix(0.021 0 0 0.021 361.2 298)"/><use href="#i13" transform="matrix(0.021 0 0 0.021 366.5 298)"/><use href="#i56" transform="matrix(0.021 0 0 0.021 376.5 298)"/><use href="#i73" transform="matrix(0.021 0 0 0.021 394.1 298)"/><use href="#i167" transform="matrix(0.021 0 0 0.021 403.9 298)"/><use href="#i137" transform="matrix(0.021 0 0 0.021 409 298)"/><use href="#i221" transform="matrix(0.021 0 0 0.021 416.3 298)"/><use href="#i56" transform="matrix(0.021 0 0 0.021 429.3 298)"/><use href="#i179" transform="matrix(0.021 0 0 0.021 443.3 298)"/><use href="#i173" transform="matrix(0.021 0 0 0.021 452 298)"/><use href="#i179" transform="matrix(0.021 0 0 0.021 462.9 298)"/><use href="#i284" transform="matrix(0.021 0 0 0.021 471 298)"/><use href="#i23" transform="matrix(0.021 0 0 0.021 479.1 298)"/><use href="#i173" transform="matrix(0.021 0 0 0.021 488.4 298)"/><use href="#i147" transform="matrix(0.021 0 0 0.021 499.1 298)"/><use href="#i192" transform="matrix(0.021 0 0 0.021 507.5 298)"/><use href="#i115" transform="matrix(0.021 0 0 0.021 514.8 298)"/><use href="#i215" transform="matrix(0.021 0 0 0.021 524.8 298)"/><use href="#i153" transform="matrix(0.021 0 0 0.021 533.4 298)"/><use href="#i173" transform="matrix(0.021 0 0 0.021 539.5 298)"/><use href="#i147" transform="matrix(0.021 0 0 0.021 550.1 298)"/><use href="#i196" transform="matrix(0.021 0 0 0.021 558.5 298)"/><use href="#i192" transform="matrix(0.021 0 0 0.021 568.5 298)"/><use href="#i115" transform="matrix(0.021 0 0 0.021 575.8 298)"/><use href="#i222" transform="matrix(0.021 0 0 0.021 585.2 298)"/><use href="#i172" transform="matrix(0.021 0 0 0.021 594 298)"/><use href="#i115" transform="matrix(0.021 0 0 0.021 609.6 298)"/><use href="#i192" transform="matrix(0.021 0 0 0.021 619.6 298)"/><use href="#i128" transform="matrix(0.021 0 0 0.021 626.9 298)"/><use href="#i151" transform="matrix(0.021 0 0 0.021 634.3 298)"/><use href="#i137" transform="matrix(0.021 0 0 0.021 644.3 298)"/><use href="#i133" transform="matrix(0.021 0 0 0.021 651.6 298)"/><use href="#i146" transform="matrix(0.021 0 0 0.021 665.1 298)"/><use href="#i192" transform="matrix(0.021 0 0 0.021 670.6 298)"/><use href="#i179" transform="matrix(0.021 0 0 0.021 677.9 298)"/><use href="#i172" transform="matrix(0.021 0 0 0.021 686.6 298)"/><use href="#i196" transform="matrix(0.021 0 0 0.021 705.8 298)"/><use href="#i153" transform="matrix(0.021 0 0 0.021 712.2 298)"/><use href="#i147" transform="matrix(0.021 0 0 0.021 717.9 298)"/><use href="#i173" transform="matrix(0.021 0 0 0.021 726.4 298)"/><use href="#i137" transform="matrix(0.021 0 0 0.021 737.3 298)"/><use href="#i133" transform="matrix(0.021 0 0 0.021 744.6 298)"/><use href="#i133" transform="matrix(0.021 0 0 0.021 758.1 298)"/><use href="#i153" transform="matrix(0.021 0 0 0.021 768.1 298)"/><use href="#i196" transform="matrix(0.021 0 0 0.021 774.1 298)"/><use href="#i202" transform="matrix(0.021 0 0 0.021 780.5 298)"/><use href="#i115" transform="matrix(0.021 0 0 0.021 786.2 298)"/><use href="#i173" transform="matrix(0.021 0 0 0.021 796.1 298)"/><use href="#i128" transform="matrix(0.021 0 0 0.021 807.1 298)"/><use href="#i137" transform="matrix(0.021 0 0 0.021 814.5 298)"/><use href="#i267" transform="matrix(0.021 0 0 0.021 825.3 298)"/><use href="#i137" transform="matrix(0.021 0 0 0.021 835.5 298)"/><use href="#i167" transform="matrix(0.021 0 0 0.021 842.8 298)"/><use href="#i133" transform="matrix(0.021 0 0 0.021 847.8 298)"/><use href="#i196" transform="matrix(0.021 0 0 0.021 857.8 298)"/><use href="#i115" transform="matrix(0.021 0 0 0.021 867.7 298)"/><use href="#i173" transform="matrix(0.021 0 0 0.021 877.6 298)"/><use href="#i133" transform="matrix(0.021 0 0 0.021 888.6 298)"/><use href="#i128" transform="matrix(0.021 0 0 0.021 902.1 298)"/><use href="#i205" transform="matrix(0.021 0 0 0.021 909.5 298)"/><use href="#i202" transform="matrix(0.021 0 0 0.021 920.1 298)"/><use href="#i153" transform="matrix(0.021 0 0 0.021 929.4 298)"/><use href="#i173" transform="matrix(0.021 0 0 0.021 935.5 298)"/><use href="#i202" transform="matrix(0.021 0 0 0.021 946.4 298)"/><use href="#i179" transform="matrix(0.021 0 0 0.021 952 298)"/><use href="#i167" transform="matrix(0.021 0 0 0.021 964.3 298)"/><use href="#i153" transform="matrix(0.021 0 0 0.021 969.3 298)"/><use href="#i173" transform="matrix(0.021 0 0 0.021 975.4 298)"/><use href="#i137" transform="matrix(0.021 0 0 0.021 986.3 298)"/><use href="#i196" transform="matrix(0.021 0 0 0.021 993.6 298)"/><use href="#i153" transform="matrix(0.021 0 0 0.021 1003.5 298)"/><use href="#i173" transform="matrix(0.021 0 0 0.021 1009.6 298)"/><use href="#i73" transform="matrix(0.021 0 0 0.021 1024.1 298)"/><use href="#i222" transform="matrix(0.021 0 0 0.021 1033.9 298)"/><use href="#i202" transform="matrix(0.021 0 0 0.021 1042.7 298)"/><use href="#i151" transform="matrix(0.021 0 0 0.021 1048.4 298)"/><use href="#i179" transform="matrix(0.021 0 0 0.021 1058.4 298)"/><use href="#i173" transform="matrix(0.021 0 0 0.021 1067.1 298)"/><use href="#i284" transform="matrix(0.021 0 0 0.021 1078 298)"/></g><g fill="#E8E1D1"><use href="#n35" transform="matrix(0.015 0 0 0.015 1285 297)"/><use href="#n47" transform="matrix(0.015 0 0 0.015 1296.7 297)"/><use href="#n44" transform="matrix(0.015 0 0 0.015 1308.4 297)"/><use href="#n42" transform="matrix(0.015 0 0 0.015 1320.1 297)"/><use href="#n35" transform="matrix(0.015 0 0 0.015 1343.5 297)"/><use href="#n38" transform="matrix(0.015 0 0 0.015 1355.2 297)"/><use href="#n47" transform="matrix(0.015 0 0 0.015 1366.9 297)"/><use href="#n48" transform="matrix(0.015 0 0 0.015 1378.6 297)"/><use href="#n49" transform="matrix(0.015 0 0 0.015 1390.3 297)"/><use href="#n45" transform="matrix(0.015 0 0 0.015 1413.7 297)"/><use href="#n47" transform="matrix(0.015 0 0 0.015 1425.4 297)"/><use href="#n38" transform="matrix(0.015 0 0 0.015 1437.1 297)"/><use href="#n43" transform="matrix(0.015 0 0 0.015 1448.8 297)"/><use href="#n32" transform="matrix(0.015 0 0 0.015 1460.5 297)"/><use href="#n38" transform="matrix(0.015 0 0 0.015 1472.2 297)"/><use href="#n45" transform="matrix(0.015 0 0 0.015 1483.9 297)"/><use href="#n41" transform="matrix(0.015 0 0 0.015 1495.6 297)"/><use href="#n34" transform="matrix(0.015 0 0 0.015 1507.3 297)"/><use href="#n48" transform="matrix(0.015 0 0 0.015 1519 297)"/></g></svg>